<svg xmlns="http://www.w3.org/2000/svg" width="691" height="653" viewBox="0 0 692 653" shape-rendering="geometricPrecision">
  <g>
    <path d="M 306.0,110.5 L 305.0,110.5 L 304.0,110.5 L 303.5,110.0 L 303.0,109.5 L 302.5,109.0 L 302.5,108.0 L 303.0,107.5 L 303.5,107.0 L 303.5,106.0 L 303.5,105.0 L 304.0,104.5 L 304.5,104.0 L 304.5,103.0 L 305.0,102.5 L 305.5,102.0 L 305.5,101.0 L 305.5,100.0 L 306.0,99.5 L 306.5,99.0 L 306.5,98.0 L 307.0,97.5 L 307.5,97.0 L 307.5,96.0 L 307.5,95.0 L 308.0,94.5 L 308.5,94.0 L 308.5,93.0 L 309.0,92.5 L 309.5,92.0 L 309.5,91.0 L 309.5,90.0 L 310.0,89.5 L 310.5,89.0 L 310.5,88.0 L 311.0,87.5 L 311.5,87.0 L 311.5,86.0 L 311.5,85.0 L 312.0,84.5 L 312.5,84.0 L 312.5,83.0 L 313.0,82.5 L 313.5,82.0 L 313.5,81.0 L 313.5,80.0 L 313.5,79.0 L 314.0,78.5 L 314.5,78.0 L 314.5,77.0 L 315.0,76.5 L 315.5,76.0 L 315.5,75.0 L 315.5,74.0 L 316.0,73.5 L 316.5,73.0 L 316.5,72.0 L 317.0,71.5 L 317.5,71.0 L 317.5,70.0 L 317.5,69.0 L 318.0,68.5 L 318.5,68.0 L 318.5,67.0 L 319.0,66.5 L 319.5,66.0 L 319.5,65.0 L 319.5,64.0 L 320.0,63.5 L 320.5,63.0 L 320.5,62.0 L 321.0,61.5 L 321.5,61.0 L 321.5,60.0 L 321.5,59.0 L 322.0,58.5 L 322.5,58.0 L 322.5,57.0 L 323.0,56.5 L 323.5,56.0 L 323.5,55.0 L 323.5,54.0 L 324.0,53.5 L 324.5,53.0 L 324.5,52.0 L 325.0,51.5 L 325.5,51.0 L 325.5,50.0 L 325.5,49.0 L 326.0,48.5 L 326.5,48.0 L 326.5,47.0 L 326.5,46.0 L 327.0,45.5 L 327.5,45.0 L 327.5,44.0 L 328.0,43.5 L 328.5,43.0 L 328.5,42.0 L 328.5,41.0 L 329.0,40.5 L 329.5,40.0 L 329.5,39.0 L 329.5,38.0 L 330.0,37.5 L 330.5,37.0 L 330.5,36.0 L 331.0,35.5 L 331.5,35.0 L 331.5,34.0 L 331.5,33.0 L 332.0,32.5 L 332.5,32.0 L 332.5,31.0 L 333.0,30.5 L 333.5,30.0 L 333.5,29.0 L 333.5,28.0 L 333.5,27.0 L 334.0,26.5 L 334.5,26.0 L 334.5,25.0 L 335.0,24.5 L 335.5,24.0 L 335.5,23.0 L 335.5,22.0 L 336.0,21.5 L 336.5,21.0 L 337.0,20.5 L 337.5,20.0 L 337.5,19.0 L 338.0,18.5 L 338.5,18.0 L 339.0,17.5 L 340.0,17.5 L 341.0,17.5 L 342.0,17.5 L 342.5,18.0 L 343.0,18.5 L 343.5,19.0 L 344.0,19.5 L 344.5,20.0 L 344.5,21.0 L 345.0,21.5 L 345.5,22.0 L 345.5,23.0 L 346.0,23.5 L 346.5,24.0 L 346.5,25.0 L 347.0,25.5 L 347.5,26.0 L 347.5,27.0 L 347.5,28.0 L 348.0,28.5 L 348.5,29.0 L 348.5,30.0 L 349.0,30.5 L 349.5,31.0 L 349.5,32.0 L 349.5,33.0 L 350.0,33.5 L 350.5,34.0 L 350.5,35.0 L 350.5,36.0 L 351.0,36.5 L 351.5,37.0 L 351.5,38.0 L 352.0,38.5 L 352.5,39.0 L 352.5,40.0 L 352.5,41.0 L 353.0,41.5 L 353.5,42.0 L 353.5,43.0 L 354.0,43.5 L 354.5,44.0 L 354.5,45.0 L 355.0,45.5 L 355.5,46.0 L 355.5,47.0 L 355.5,48.0 L 356.0,48.5 L 356.5,49.0 L 356.5,50.0 L 356.5,51.0 L 357.0,51.5 L 357.5,52.0 L 357.5,53.0 L 358.0,53.5 L 358.5,54.0 L 358.5,55.0 L 358.5,56.0 L 359.0,56.5 L 359.5,57.0 L 359.5,58.0 L 359.5,59.0 L 360.0,59.5 L 360.5,60.0 L 360.5,61.0 L 361.0,61.5 L 361.5,62.0 L 361.5,63.0 L 361.5,64.0 L 362.0,64.5 L 362.5,65.0 L 362.5,66.0 L 363.0,66.5 L 363.5,67.0 L 363.5,68.0 L 363.5,69.0 L 364.0,69.5 L 364.5,70.0 L 364.5,71.0 L 365.0,71.5 L 365.5,72.0 L 365.5,73.0 L 365.5,74.0 L 366.0,74.5 L 366.5,75.0 L 366.5,76.0 L 367.0,76.5 L 367.5,77.0 L 367.5,78.0 L 367.5,79.0 L 368.0,79.5 L 368.5,80.0 L 368.5,81.0 L 369.0,81.5 L 369.5,82.0 L 369.5,83.0 L 369.5,84.0 L 370.0,84.5 L 370.5,85.0 L 370.5,86.0 L 370.5,87.0 L 371.0,87.5 L 371.5,88.0 L 371.5,89.0 L 372.0,89.5 L 372.5,90.0 L 372.5,91.0 L 373.0,91.5 L 373.5,92.0 L 373.5,93.0 L 373.5,94.0 L 374.0,94.5 L 374.5,95.0 L 374.5,96.0 L 375.0,96.5 L 375.5,97.0 L 375.5,98.0 L 375.5,99.0 L 376.0,99.5 L 376.5,100.0 L 376.5,101.0 L 377.0,101.5 L 377.5,102.0 L 377.5,103.0 L 377.5,104.0 L 378.0,104.5 L 378.5,105.0 L 378.5,106.0 L 379.0,106.5 L 379.5,107.0 L 379.5,108.0 L 379.0,108.5 L 378.5,109.0 L 378.0,109.5 L 377.0,109.5 L 376.0,109.5 L 375.0,109.5 L 374.0,109.5 L 373.0,109.5 L 372.0,109.5 L 371.5,109.0 L 371.0,108.5 L 370.0,108.5 L 369.0,108.5 L 368.0,108.5 L 367.0,108.5 L 366.0,108.5 L 365.0,108.5 L 364.0,108.5 L 363.0,108.5 L 362.0,108.5 L 361.5,108.0 L 361.0,107.5 L 360.0,107.5 L 359.0,107.5 L 358.0,107.5 L 357.0,107.5 L 356.0,107.5 L 355.0,107.5 L 354.0,107.5 L 353.0,107.5 L 352.0,107.5 L 351.0,107.5 L 350.0,107.5 L 349.0,107.5 L 348.0,107.5 L 347.0,107.5 L 346.0,107.5 L 345.0,107.5 L 344.0,107.5 L 343.0,107.5 L 342.0,107.5 L 341.0,107.5 L 340.0,107.5 L 339.0,107.5 L 338.0,107.5 L 337.0,107.5 L 336.0,107.5 L 335.0,107.5 L 334.0,107.5 L 333.0,107.5 L 332.0,107.5 L 331.0,107.5 L 330.0,107.5 L 329.0,107.5 L 328.0,107.5 L 327.0,107.5 L 326.0,107.5 L 325.0,107.5 L 324.5,108.0 L 324.0,108.5 L 323.0,108.5 L 322.0,108.5 L 321.0,108.5 L 320.0,108.5 L 319.0,108.5 L 318.0,108.5 L 317.0,108.5 L 316.0,108.5 L 315.5,109.0 L 315.0,109.5 L 314.0,109.5 L 313.0,109.5 L 312.0,109.5 L 311.0,109.5 L 310.0,109.5 L 309.0,109.5 L 308.0,109.5 L 307.0,109.5 L 306.5,110.0 L 306.0,110.5 Z" fill="#FBC00A" fill-rule="evenodd"/> <path d="M 211.0,150.5 L 210.5,150.0 L 210.0,149.5 L 209.5,149.0 L 209.0,148.5 L 208.5,148.0 L 208.5,147.0 L 208.5,146.0 L 208.5,145.0 L 208.5,144.0 L 208.0,143.5 L 207.5,143.0 L 207.5,142.0 L 207.5,141.0 L 207.5,140.0 L 207.5,139.0 L 207.5,138.0 L 207.5,137.0 L 207.5,136.0 L 207.0,135.5 L 206.5,135.0 L 206.5,134.0 L 206.5,133.0 L 206.5,132.0 L 206.5,131.0 L 206.5,130.0 L 206.0,129.5 L 205.5,129.0 L 205.5,128.0 L 205.5,127.0 L 205.5,126.0 L 205.5,125.0 L 205.5,124.0 L 205.5,123.0 L 205.0,122.5 L 204.5,122.0 L 204.5,121.0 L 204.5,120.0 L 204.5,119.0 L 204.5,118.0 L 204.5,117.0 L 204.0,116.5 L 203.5,116.0 L 203.5,115.0 L 203.5,114.0 L 203.5,113.0 L 203.5,112.0 L 203.5,111.0 L 203.5,110.0 L 203.5,109.0 L 203.0,108.5 L 202.5,108.0 L 202.5,107.0 L 202.5,106.0 L 202.5,105.0 L 202.5,104.0 L 202.5,103.0 L 202.0,102.5 L 201.5,102.0 L 201.5,101.0 L 201.5,100.0 L 201.5,99.0 L 201.5,98.0 L 201.5,97.0 L 201.5,96.0 L 201.5,95.0 L 201.5,94.0 L 201.0,93.5 L 200.5,93.0 L 200.5,92.0 L 200.5,91.0 L 200.5,90.0 L 200.5,89.0 L 200.0,88.5 L 199.5,88.0 L 199.5,87.0 L 199.5,86.0 L 199.5,85.0 L 199.5,84.0 L 199.5,83.0 L 199.5,82.0 L 199.5,81.0 L 199.5,80.0 L 199.0,79.5 L 198.5,79.0 L 198.5,78.0 L 198.5,77.0 L 198.5,76.0 L 198.5,75.0 L 198.5,74.0 L 198.0,73.5 L 197.5,73.0 L 197.5,72.0 L 197.5,71.0 L 197.5,70.0 L 197.5,69.0 L 197.5,68.0 L 197.5,67.0 L 197.5,66.0 L 197.0,65.5 L 196.5,65.0 L 196.5,64.0 L 196.5,63.0 L 196.5,62.0 L 196.5,61.0 L 196.5,60.0 L 196.5,59.0 L 196.5,58.0 L 196.0,57.5 L 195.5,57.0 L 195.5,56.0 L 195.5,55.0 L 195.5,54.0 L 196.0,53.5 L 196.5,53.0 L 197.0,52.5 L 197.5,52.0 L 198.0,51.5 L 199.0,51.5 L 200.0,51.5 L 201.0,51.5 L 201.5,52.0 L 202.0,52.5 L 202.5,53.0 L 203.0,53.5 L 204.0,53.5 L 204.5,54.0 L 205.0,54.5 L 205.5,55.0 L 206.0,55.5 L 206.5,56.0 L 207.0,56.5 L 207.5,57.0 L 208.0,57.5 L 209.0,57.5 L 209.5,58.0 L 210.0,58.5 L 210.5,59.0 L 211.0,59.5 L 211.5,60.0 L 212.0,60.5 L 212.5,61.0 L 213.0,61.5 L 213.5,62.0 L 214.0,62.5 L 215.0,62.5 L 215.5,63.0 L 216.0,63.5 L 216.5,64.0 L 217.0,64.5 L 217.5,65.0 L 218.0,65.5 L 218.5,66.0 L 219.0,66.5 L 219.5,67.0 L 220.0,67.5 L 221.0,67.5 L 221.5,68.0 L 222.0,68.5 L 222.5,69.0 L 223.0,69.5 L 223.5,70.0 L 224.0,70.5 L 224.5,71.0 L 225.0,71.5 L 226.0,71.5 L 226.5,72.0 L 227.0,72.5 L 227.5,73.0 L 228.0,73.5 L 228.5,74.0 L 229.0,74.5 L 229.5,75.0 L 230.0,75.5 L 230.5,76.0 L 231.0,76.5 L 231.5,77.0 L 232.0,77.5 L 233.0,77.5 L 233.5,78.0 L 234.0,78.5 L 234.5,79.0 L 235.0,79.5 L 235.5,80.0 L 236.0,80.5 L 236.5,81.0 L 237.0,81.5 L 237.5,82.0 L 238.0,82.5 L 239.0,82.5 L 239.5,83.0 L 240.0,83.5 L 240.5,84.0 L 241.0,84.5 L 241.5,85.0 L 242.0,85.5 L 242.5,86.0 L 243.0,86.5 L 243.5,87.0 L 244.0,87.5 L 245.0,87.5 L 245.5,88.0 L 246.0,88.5 L 246.5,89.0 L 247.0,89.5 L 247.5,90.0 L 248.0,90.5 L 248.5,91.0 L 249.0,91.5 L 249.5,92.0 L 250.0,92.5 L 251.0,92.5 L 251.5,93.0 L 252.0,93.5 L 252.5,94.0 L 253.0,94.5 L 253.5,95.0 L 254.0,95.5 L 254.5,96.0 L 255.0,96.5 L 255.5,97.0 L 256.0,97.5 L 257.0,97.5 L 257.5,98.0 L 258.0,98.5 L 258.5,99.0 L 259.0,99.5 L 259.5,100.0 L 260.0,100.5 L 260.5,101.0 L 261.0,101.5 L 261.5,102.0 L 262.0,102.5 L 262.5,103.0 L 263.0,103.5 L 264.0,103.5 L 264.5,104.0 L 265.0,104.5 L 265.5,105.0 L 266.0,105.5 L 266.5,106.0 L 267.0,106.5 L 267.5,107.0 L 268.0,107.5 L 268.5,108.0 L 269.0,108.5 L 270.0,108.5 L 270.5,109.0 L 271.0,109.5 L 271.5,110.0 L 272.0,110.5 L 272.5,111.0 L 273.0,111.5 L 273.5,112.0 L 274.0,112.5 L 274.5,113.0 L 275.0,113.5 L 276.0,113.5 L 276.5,114.0 L 277.0,114.5 L 277.5,115.0 L 278.0,115.5 L 278.5,116.0 L 278.0,116.5 L 277.5,117.0 L 277.0,117.5 L 276.0,117.5 L 275.0,117.5 L 274.5,118.0 L 274.0,118.5 L 273.0,118.5 L 272.5,119.0 L 272.0,119.5 L 271.0,119.5 L 270.0,119.5 L 269.0,119.5 L 268.5,120.0 L 268.0,120.5 L 267.0,120.5 L 266.5,121.0 L 266.0,121.5 L 265.0,121.5 L 264.0,121.5 L 263.5,122.0 L 263.0,122.5 L 262.0,122.5 L 261.5,123.0 L 261.0,123.5 L 260.0,123.5 L 259.0,123.5 L 258.5,124.0 L 258.0,124.5 L 257.0,124.5 L 256.0,124.5 L 255.5,125.0 L 255.0,125.5 L 254.0,125.5 L 253.0,125.5 L 252.5,126.0 L 252.0,126.5 L 251.0,126.5 L 250.5,127.0 L 250.0,127.5 L 249.0,127.5 L 248.5,128.0 L 248.0,128.5 L 247.0,128.5 L 246.5,129.0 L 246.0,129.5 L 245.0,129.5 L 244.5,130.0 L 244.0,130.5 L 243.0,130.5 L 242.5,131.0 L 242.0,131.5 L 241.0,131.5 L 240.5,132.0 L 240.0,132.5 L 239.0,132.5 L 238.5,133.0 L 238.0,133.5 L 237.0,133.5 L 236.5,134.0 L 236.0,134.5 L 235.0,134.5 L 234.5,135.0 L 234.0,135.5 L 233.0,135.5 L 232.5,136.0 L 232.0,136.5 L 231.5,137.0 L 231.0,137.5 L 230.0,137.5 L 229.5,138.0 L 229.0,138.5 L 228.0,138.5 L 227.5,139.0 L 227.0,139.5 L 226.5,140.0 L 226.0,140.5 L 225.0,140.5 L 224.5,141.0 L 224.0,141.5 L 223.5,142.0 L 223.0,142.5 L 222.0,142.5 L 221.5,143.0 L 221.0,143.5 L 220.0,143.5 L 219.5,144.0 L 219.0,144.5 L 218.5,145.0 L 218.0,145.5 L 217.0,145.5 L 216.5,146.0 L 216.0,146.5 L 215.5,147.0 L 215.0,147.5 L 214.0,147.5 L 213.5,148.0 L 213.0,148.5 L 212.5,149.0 L 212.0,149.5 L 211.5,150.0 L 211.0,150.5 Z" fill="#FBC00A" fill-rule="evenodd"/> <path d="M 474.0,151.5 L 473.0,151.5 L 472.5,151.0 L 472.0,150.5 L 471.5,150.0 L 471.0,149.5 L 470.0,149.5 L 469.5,149.0 L 469.0,148.5 L 468.5,148.0 L 468.0,147.5 L 467.0,147.5 L 466.5,147.0 L 466.0,146.5 L 465.5,146.0 L 465.0,145.5 L 464.0,145.5 L 463.5,145.0 L 463.0,144.5 L 462.5,144.0 L 462.0,143.5 L 461.0,143.5 L 460.5,143.0 L 460.0,142.5 L 459.5,142.0 L 459.0,141.5 L 458.0,141.5 L 457.5,141.0 L 457.0,140.5 L 456.5,140.0 L 456.0,139.5 L 455.0,139.5 L 454.5,139.0 L 454.0,138.5 L 453.0,138.5 L 452.5,138.0 L 452.0,137.5 L 451.0,137.5 L 450.5,137.0 L 450.0,136.5 L 449.5,136.0 L 449.0,135.5 L 448.0,135.5 L 447.5,135.0 L 447.0,134.5 L 446.0,134.5 L 445.5,134.0 L 445.0,133.5 L 444.0,133.5 L 443.5,133.0 L 443.0,132.5 L 442.0,132.5 L 441.5,132.0 L 441.0,131.5 L 440.0,131.5 L 439.5,131.0 L 439.0,130.5 L 438.0,130.5 L 437.5,130.0 L 437.0,129.5 L 436.0,129.5 L 435.5,129.0 L 435.0,128.5 L 434.5,128.0 L 434.0,127.5 L 433.0,127.5 L 432.0,127.5 L 431.5,127.0 L 431.0,126.5 L 430.0,126.5 L 429.5,126.0 L 429.0,125.5 L 428.0,125.5 L 427.5,125.0 L 427.0,124.5 L 426.0,124.5 L 425.5,124.0 L 425.0,123.5 L 424.0,123.5 L 423.0,123.5 L 422.5,123.0 L 422.0,122.5 L 421.0,122.5 L 420.5,122.0 L 420.0,121.5 L 419.0,121.5 L 418.0,121.5 L 417.0,121.5 L 416.5,121.0 L 416.0,120.5 L 415.0,120.5 L 414.5,120.0 L 414.0,119.5 L 413.0,119.5 L 412.0,119.5 L 411.5,119.0 L 411.0,118.5 L 410.0,118.5 L 409.0,118.5 L 408.5,118.0 L 408.0,117.5 L 407.0,117.5 L 406.0,117.5 L 405.5,117.0 L 405.0,116.5 L 404.5,116.0 L 405.0,115.5 L 405.5,115.0 L 406.0,114.5 L 406.5,114.0 L 407.0,113.5 L 408.0,113.5 L 408.5,113.0 L 409.0,112.5 L 409.5,112.0 L 410.0,111.5 L 410.5,111.0 L 411.0,110.5 L 411.5,110.0 L 412.0,109.5 L 413.0,109.5 L 413.5,109.0 L 414.0,108.5 L 414.5,108.0 L 415.0,107.5 L 415.5,107.0 L 416.0,106.5 L 416.5,106.0 L 417.0,105.5 L 417.5,105.0 L 418.0,104.5 L 418.5,104.0 L 419.0,103.5 L 420.0,103.5 L 420.5,103.0 L 421.0,102.5 L 421.5,102.0 L 422.0,101.5 L 422.5,101.0 L 423.0,100.5 L 423.5,100.0 L 424.0,99.5 L 425.0,99.5 L 425.5,99.0 L 426.0,98.5 L 426.5,98.0 L 427.0,97.5 L 427.5,97.0 L 428.0,96.5 L 428.5,96.0 L 429.0,95.5 L 429.5,95.0 L 430.0,94.5 L 430.5,94.0 L 431.0,93.5 L 431.5,93.0 L 432.0,92.5 L 433.0,92.5 L 433.5,92.0 L 434.0,91.5 L 434.5,91.0 L 435.0,90.5 L 435.5,90.0 L 436.0,89.5 L 436.5,89.0 L 437.0,88.5 L 437.5,88.0 L 438.0,87.5 L 439.0,87.5 L 439.5,87.0 L 440.0,86.5 L 440.5,86.0 L 441.0,85.5 L 441.5,85.0 L 442.0,84.5 L 442.5,84.0 L 443.0,83.5 L 443.5,83.0 L 444.0,82.5 L 444.5,82.0 L 445.0,81.5 L 446.0,81.5 L 446.5,81.0 L 447.0,80.5 L 447.5,80.0 L 448.0,79.5 L 448.5,79.0 L 449.0,78.5 L 449.5,78.0 L 450.0,77.5 L 450.5,77.0 L 451.0,76.5 L 451.5,76.0 L 452.0,75.5 L 453.0,75.5 L 453.5,75.0 L 454.0,74.5 L 454.5,74.0 L 455.0,73.5 L 455.5,73.0 L 456.0,72.5 L 456.5,72.0 L 457.0,71.5 L 457.5,71.0 L 458.0,70.5 L 459.0,70.5 L 459.5,70.0 L 460.0,69.5 L 460.5,69.0 L 461.0,68.5 L 461.5,68.0 L 462.0,67.5 L 462.5,67.0 L 463.0,66.5 L 463.5,66.0 L 464.0,65.5 L 465.0,65.5 L 465.5,65.0 L 466.0,64.5 L 466.5,64.0 L 467.0,63.5 L 467.5,63.0 L 468.0,62.5 L 468.5,62.0 L 469.0,61.5 L 469.5,61.0 L 470.0,60.5 L 470.5,60.0 L 471.0,59.5 L 471.5,59.0 L 472.0,58.5 L 472.5,58.0 L 473.0,57.5 L 474.0,57.5 L 474.5,57.0 L 475.0,56.5 L 475.5,56.0 L 476.0,55.5 L 476.5,55.0 L 477.0,54.5 L 477.5,54.0 L 478.0,53.5 L 479.0,53.5 L 479.5,53.0 L 480.0,52.5 L 480.5,52.0 L 481.0,51.5 L 482.0,51.5 L 482.5,52.0 L 483.0,52.5 L 483.5,53.0 L 484.0,53.5 L 484.5,54.0 L 485.0,54.5 L 485.5,55.0 L 485.5,56.0 L 485.5,57.0 L 485.5,58.0 L 485.5,59.0 L 485.0,59.5 L 484.5,60.0 L 484.5,61.0 L 484.5,62.0 L 484.5,63.0 L 484.5,64.0 L 484.5,65.0 L 484.5,66.0 L 484.5,67.0 L 484.0,67.5 L 483.5,68.0 L 483.5,69.0 L 483.5,70.0 L 483.5,71.0 L 483.5,72.0 L 483.5,73.0 L 483.5,74.0 L 483.5,75.0 L 483.5,76.0 L 483.5,77.0 L 483.0,77.5 L 482.5,78.0 L 482.5,79.0 L 482.5,80.0 L 482.5,81.0 L 482.5,82.0 L 482.5,83.0 L 482.5,84.0 L 482.5,85.0 L 482.0,85.5 L 481.5,86.0 L 481.5,87.0 L 481.5,88.0 L 481.5,89.0 L 481.5,90.0 L 481.5,91.0 L 481.5,92.0 L 481.5,93.0 L 481.5,94.0 L 481.5,95.0 L 481.5,96.0 L 481.5,97.0 L 481.0,97.5 L 480.5,98.0 L 480.5,99.0 L 480.5,100.0 L 480.5,101.0 L 480.5,102.0 L 480.5,103.0 L 480.5,104.0 L 480.0,104.5 L 479.5,105.0 L 479.5,106.0 L 479.5,107.0 L 479.5,108.0 L 479.5,109.0 L 479.5,110.0 L 479.5,111.0 L 479.5,112.0 L 479.5,113.0 L 479.5,114.0 L 479.5,115.0 L 479.0,115.5 L 478.5,116.0 L 478.5,117.0 L 478.5,118.0 L 478.5,119.0 L 478.5,120.0 L 478.5,121.0 L 478.5,122.0 L 478.0,122.5 L 477.5,123.0 L 477.5,124.0 L 477.5,125.0 L 477.5,126.0 L 477.5,127.0 L 477.5,128.0 L 477.5,129.0 L 477.5,130.0 L 477.5,131.0 L 477.5,132.0 L 477.5,133.0 L 477.0,133.5 L 476.5,134.0 L 476.5,135.0 L 476.5,136.0 L 476.5,137.0 L 476.5,138.0 L 476.5,139.0 L 476.5,140.0 L 476.5,141.0 L 476.5,142.0 L 476.0,142.5 L 475.5,143.0 L 475.5,144.0 L 475.5,145.0 L 475.5,146.0 L 475.5,147.0 L 475.5,148.0 L 475.5,149.0 L 475.5,150.0 L 475.0,150.5 L 474.5,151.0 L 474.0,151.5 Z" fill="#FBC00A" fill-rule="evenodd"/> <path d="M 405.0,272.5 L 403.0,271.5 L 402.5,269.0 L 401.5,267.0 L 401.5,264.0 L 401.5,261.0 L 400.5,259.0 L 399.5,257.0 L 399.0,254.5 L 397.5,253.0 L 396.5,251.0 L 395.5,249.0 L 394.0,247.5 L 392.5,246.0 L 391.0,244.5 L 389.0,243.5 L 387.0,242.5 L 385.0,241.5 L 383.5,240.0 L 381.0,239.5 L 379.0,238.5 L 376.5,238.0 L 374.0,237.5 L 371.0,237.5 L 368.0,237.5 L 366.0,238.5 L 363.5,239.0 L 361.0,239.5 L 359.0,240.5 L 357.0,241.5 L 354.5,242.0 L 352.5,243.0 L 350.5,244.0 L 348.5,245.0 L 346.5,246.0 L 345.0,247.5 L 343.0,248.5 L 341.0,249.5 L 339.0,250.5 L 337.0,251.5 L 334.0,251.5 L 332.0,250.5 L 330.0,249.5 L 328.0,248.5 L 326.0,247.5 L 323.5,247.0 L 321.0,246.5 L 319.0,245.5 L 317.0,244.5 L 315.0,243.5 L 312.5,243.0 L 310.0,242.5 L 308.0,241.5 L 306.0,240.5 L 304.0,239.5 L 302.0,238.5 L 299.5,238.0 L 297.5,237.0 L 295.0,236.5 L 293.0,235.5 L 291.0,234.5 L 289.0,233.5 L 286.5,233.0 L 284.5,232.0 L 282.0,231.5 L 280.0,230.5 L 278.0,229.5 L 276.0,228.5 L 274.0,227.5 L 271.5,227.0 L 269.5,226.0 L 267.0,225.5 L 265.0,224.5 L 263.0,223.5 L 260.5,223.0 L 258.5,222.0 L 256.0,221.5 L 254.0,220.5 L 252.0,219.5 L 250.0,218.5 L 247.5,218.0 L 245.0,217.5 L 243.0,216.5 L 241.0,215.5 L 239.0,214.5 L 236.5,214.0 L 234.0,213.5 L 232.0,212.5 L 230.0,211.5 L 228.0,210.5 L 226.0,209.5 L 223.5,209.0 L 221.0,208.5 L 219.0,207.5 L 217.0,206.5 L 214.5,206.0 L 212.0,205.5 L 210.0,204.5 L 208.0,203.5 L 205.5,203.0 L 203.0,202.5 L 201.0,201.5 L 199.0,200.5 L 196.0,200.5 L 194.0,199.5 L 191.0,199.5 L 189.5,198.0 L 190.5,196.0 L 192.0,194.5 L 193.5,193.0 L 195.0,191.5 L 196.5,190.0 L 198.0,188.5 L 199.5,187.0 L 201.0,185.5 L 202.5,184.0 L 204.0,182.5 L 205.5,181.0 L 207.0,179.5 L 208.5,178.0 L 210.5,177.0 L 212.0,175.5 L 213.5,174.0 L 215.5,173.0 L 217.0,171.5 L 218.5,170.0 L 220.0,168.5 L 222.0,167.5 L 223.5,166.0 L 225.5,165.0 L 227.0,163.5 L 229.0,162.5 L 231.0,161.5 L 232.5,160.0 L 234.0,158.5 L 236.0,157.5 L 238.0,156.5 L 240.0,155.5 L 242.0,154.5 L 244.0,153.5 L 245.5,152.0 L 247.5,151.0 L 249.5,150.0 L 251.5,149.0 L 253.5,148.0 L 255.5,147.0 L 258.0,146.5 L 260.0,145.5 L 262.0,144.5 L 264.0,143.5 L 266.0,142.5 L 268.0,141.5 L 270.5,141.0 L 272.5,140.0 L 275.0,139.5 L 277.0,138.5 L 279.0,137.5 L 282.0,137.5 L 284.0,136.5 L 286.0,135.5 L 289.0,135.5 L 291.0,134.5 L 293.0,133.5 L 296.0,133.5 L 298.0,132.5 L 300.5,132.0 L 303.0,131.5 L 306.0,131.5 L 308.0,130.5 L 311.0,130.5 L 313.0,129.5 L 316.0,129.5 L 319.0,129.5 L 321.0,128.5 L 324.0,128.5 L 327.0,128.5 L 329.0,127.5 L 332.0,127.5 L 335.0,127.5 L 338.0,127.5 L 341.0,127.5 L 344.0,127.5 L 347.0,127.5 L 350.0,127.5 L 353.0,127.5 L 356.0,127.5 L 358.0,128.5 L 361.0,128.5 L 364.0,128.5 L 366.0,129.5 L 369.0,129.5 L 372.0,129.5 L 374.0,130.5 L 377.0,130.5 L 379.0,131.5 L 382.0,131.5 L 384.0,132.5 L 386.5,133.0 L 389.0,133.5 L 391.5,134.0 L 394.0,134.5 L 396.0,135.5 L 398.5,136.0 L 400.5,137.0 L 403.0,137.5 L 405.0,138.5 L 407.5,139.0 L 410.0,139.5 L 412.0,140.5 L 414.0,141.5 L 416.0,142.5 L 418.0,143.5 L 420.0,144.5 L 422.0,145.5 L 424.5,146.0 L 426.5,147.0 L 428.5,148.0 L 430.5,149.0 L 432.5,150.0 L 434.5,151.0 L 436.5,152.0 L 438.0,153.5 L 440.0,154.5 L 442.0,155.5 L 444.0,156.5 L 446.0,157.5 L 447.5,159.0 L 449.5,160.0 L 451.0,161.5 L 453.0,162.5 L 455.0,163.5 L 456.5,165.0 L 458.0,166.5 L 460.0,167.5 L 461.5,169.0 L 463.5,170.0 L 465.0,171.5 L 466.5,173.0 L 468.0,174.5 L 470.0,175.5 L 471.5,177.0 L 473.0,178.5 L 474.5,180.0 L 476.0,181.5 L 477.5,183.0 L 479.0,184.5 L 480.5,186.0 L 482.0,187.5 L 483.5,189.0 L 485.0,190.5 L 486.5,192.0 L 488.0,193.5 L 489.5,195.0 L 491.0,196.5 L 492.5,198.0 L 493.5,200.0 L 495.0,201.5 L 496.5,203.0 L 497.5,205.0 L 499.0,206.5 L 500.5,208.0 L 501.5,210.0 L 503.0,211.5 L 504.0,213.5 L 505.5,215.0 L 506.5,217.0 L 507.5,219.0 L 508.0,220.5 L 506.5,222.0 L 504.5,223.0 L 502.5,224.0 L 500.5,225.0 L 498.5,226.0 L 496.5,227.0 L 494.5,228.0 L 492.5,229.0 L 490.5,230.0 L 488.5,231.0 L 486.0,231.5 L 484.5,233.0 L 482.0,233.5 L 480.0,234.5 L 478.0,235.5 L 476.0,236.5 L 474.0,237.5 L 472.0,238.5 L 470.0,239.5 L 468.0,240.5 L 466.0,241.5 L 464.0,242.5 L 462.0,243.5 L 460.0,244.5 L 458.0,245.5 L 456.0,246.5 L 454.0,247.5 L 452.0,248.5 L 450.0,249.5 L 448.0,250.5 L 446.0,251.5 L 444.0,252.5 L 442.0,253.5 L 440.0,254.5 L 438.0,255.5 L 436.0,256.5 L 434.0,257.5 L 432.0,258.5 L 430.0,259.5 L 428.0,260.5 L 426.0,261.5 L 424.0,262.5 L 422.0,263.5 L 420.0,264.5 L 418.0,265.5 L 416.0,266.5 L 414.0,267.5 L 412.0,268.5 L 410.0,269.5 L 408.0,270.5 L 406.0,271.5 Z" fill="#FBC00A" fill-rule="evenodd"/> <path d="M 145.0,227.5 L 144.5,227.0 L 144.0,226.5 L 143.5,226.0 L 143.5,225.0 L 143.0,224.5 L 142.5,224.0 L 142.0,223.5 L 141.5,223.0 L 141.0,222.5 L 140.5,222.0 L 140.5,221.0 L 140.0,220.5 L 139.5,220.0 L 139.0,219.5 L 138.5,219.0 L 138.0,218.5 L 137.5,218.0 L 137.5,217.0 L 137.0,216.5 L 136.5,216.0 L 136.0,215.5 L 135.5,215.0 L 135.5,214.0 L 135.0,213.5 L 134.5,213.0 L 134.0,212.5 L 133.5,212.0 L 133.0,211.5 L 132.5,211.0 L 132.5,210.0 L 132.0,209.5 L 131.5,209.0 L 131.0,208.5 L 130.5,208.0 L 130.0,207.5 L 129.5,207.0 L 129.5,206.0 L 129.0,205.5 L 128.5,205.0 L 128.0,204.5 L 127.5,204.0 L 127.5,203.0 L 127.0,202.5 L 126.5,202.0 L 126.0,201.5 L 125.5,201.0 L 125.0,200.5 L 124.5,200.0 L 124.5,199.0 L 124.0,198.5 L 123.5,198.0 L 123.0,197.5 L 122.5,197.0 L 122.0,196.5 L 121.5,196.0 L 121.5,195.0 L 121.0,194.5 L 120.5,194.0 L 120.0,193.5 L 119.5,193.0 L 119.0,192.5 L 118.5,192.0 L 118.5,191.0 L 118.0,190.5 L 117.5,190.0 L 117.0,189.5 L 116.5,189.0 L 116.5,188.0 L 116.0,187.5 L 115.5,187.0 L 115.0,186.5 L 114.5,186.0 L 114.0,185.5 L 113.5,185.0 L 113.5,184.0 L 113.0,183.5 L 112.5,183.0 L 112.0,182.5 L 111.5,182.0 L 111.0,181.5 L 110.5,181.0 L 110.5,180.0 L 110.0,179.5 L 109.5,179.0 L 109.0,178.5 L 108.5,178.0 L 108.0,177.5 L 107.5,177.0 L 107.5,176.0 L 107.0,175.5 L 106.5,175.0 L 106.0,174.5 L 105.5,174.0 L 105.5,173.0 L 105.0,172.5 L 104.5,172.0 L 104.0,171.5 L 103.5,171.0 L 103.0,170.5 L 102.5,170.0 L 102.0,169.5 L 101.5,169.0 L 101.5,168.0 L 101.0,167.5 L 100.5,167.0 L 100.0,166.5 L 99.5,166.0 L 99.5,165.0 L 99.0,164.5 L 98.5,164.0 L 98.0,163.5 L 97.5,163.0 L 97.0,162.5 L 96.5,162.0 L 96.5,161.0 L 96.0,160.5 L 95.5,160.0 L 95.0,159.5 L 94.5,159.0 L 94.0,158.5 L 93.5,158.0 L 93.5,157.0 L 93.0,156.5 L 92.5,156.0 L 92.0,155.5 L 91.5,155.0 L 91.0,154.5 L 90.5,154.0 L 90.5,153.0 L 90.0,152.5 L 89.5,152.0 L 89.5,151.0 L 89.0,150.5 L 88.5,150.0 L 88.5,149.0 L 88.5,148.0 L 88.5,147.0 L 89.0,146.5 L 89.5,146.0 L 90.0,145.5 L 90.5,145.0 L 91.0,144.5 L 92.0,144.5 L 93.0,144.5 L 94.0,144.5 L 94.5,145.0 L 95.0,145.5 L 96.0,145.5 L 97.0,145.5 L 98.0,145.5 L 99.0,145.5 L 100.0,145.5 L 100.5,146.0 L 101.0,146.5 L 102.0,146.5 L 103.0,146.5 L 103.5,147.0 L 104.0,147.5 L 105.0,147.5 L 106.0,147.5 L 107.0,147.5 L 108.0,147.5 L 108.5,148.0 L 109.0,148.5 L 110.0,148.5 L 111.0,148.5 L 112.0,148.5 L 112.5,149.0 L 113.0,149.5 L 114.0,149.5 L 115.0,149.5 L 116.0,149.5 L 117.0,149.5 L 117.5,150.0 L 118.0,150.5 L 119.0,150.5 L 120.0,150.5 L 120.5,151.0 L 121.0,151.5 L 122.0,151.5 L 123.0,151.5 L 124.0,151.5 L 125.0,151.5 L 125.5,152.0 L 126.0,152.5 L 127.0,152.5 L 128.0,152.5 L 128.5,153.0 L 129.0,153.5 L 130.0,153.5 L 131.0,153.5 L 132.0,153.5 L 133.0,153.5 L 133.5,154.0 L 134.0,154.5 L 135.0,154.5 L 136.0,154.5 L 137.0,154.5 L 137.5,155.0 L 138.0,155.5 L 139.0,155.5 L 140.0,155.5 L 141.0,155.5 L 142.0,155.5 L 142.5,156.0 L 143.0,156.5 L 144.0,156.5 L 145.0,156.5 L 146.0,156.5 L 146.5,157.0 L 147.0,157.5 L 148.0,157.5 L 149.0,157.5 L 150.0,157.5 L 151.0,157.5 L 152.0,157.5 L 152.5,158.0 L 153.0,158.5 L 154.0,158.5 L 155.0,158.5 L 155.5,159.0 L 156.0,159.5 L 157.0,159.5 L 158.0,159.5 L 159.0,159.5 L 160.0,159.5 L 160.5,160.0 L 161.0,160.5 L 162.0,160.5 L 163.0,160.5 L 163.5,161.0 L 164.0,161.5 L 165.0,161.5 L 166.0,161.5 L 167.0,161.5 L 168.0,161.5 L 168.5,162.0 L 169.0,162.5 L 170.0,162.5 L 171.0,162.5 L 172.0,162.5 L 172.5,163.0 L 173.0,163.5 L 174.0,163.5 L 175.0,163.5 L 176.0,163.5 L 176.5,164.0 L 177.0,164.5 L 178.0,164.5 L 179.0,164.5 L 180.0,164.5 L 180.5,165.0 L 181.0,165.5 L 182.0,165.5 L 183.0,165.5 L 184.0,165.5 L 184.5,166.0 L 185.0,166.5 L 186.0,166.5 L 187.0,166.5 L 187.5,167.0 L 188.0,167.5 L 188.5,168.0 L 188.5,169.0 L 188.0,169.5 L 187.5,170.0 L 187.0,170.5 L 186.5,171.0 L 186.0,171.5 L 185.5,172.0 L 185.0,172.5 L 184.5,173.0 L 184.0,173.5 L 183.5,174.0 L 183.0,174.5 L 182.5,175.0 L 182.0,175.5 L 181.5,176.0 L 181.0,176.5 L 180.5,177.0 L 180.0,177.5 L 179.5,178.0 L 179.0,178.5 L 178.5,179.0 L 178.0,179.5 L 177.5,180.0 L 177.0,180.5 L 176.5,181.0 L 176.0,181.5 L 175.5,182.0 L 175.0,182.5 L 174.5,183.0 L 174.0,183.5 L 173.5,184.0 L 173.5,185.0 L 173.0,185.5 L 172.5,186.0 L 172.0,186.5 L 171.5,187.0 L 171.0,187.5 L 170.5,188.0 L 170.0,188.5 L 169.5,189.0 L 169.0,189.5 L 168.5,190.0 L 168.5,191.0 L 168.0,191.5 L 167.5,192.0 L 167.0,192.5 L 166.5,193.0 L 166.0,193.5 L 165.5,194.0 L 165.5,195.0 L 165.0,195.5 L 164.5,196.0 L 164.0,196.5 L 163.5,197.0 L 163.0,197.5 L 162.5,198.0 L 162.5,199.0 L 162.0,199.5 L 161.5,200.0 L 161.0,200.5 L 160.5,201.0 L 160.0,201.5 L 159.5,202.0 L 159.5,203.0 L 159.0,203.5 L 158.5,204.0 L 158.5,205.0 L 158.0,205.5 L 157.5,206.0 L 157.0,206.5 L 156.5,207.0 L 156.5,208.0 L 156.0,208.5 L 155.5,209.0 L 155.5,210.0 L 155.0,210.5 L 154.5,211.0 L 154.0,211.5 L 153.5,212.0 L 153.5,213.0 L 153.0,213.5 L 152.5,214.0 L 152.5,215.0 L 152.0,215.5 L 151.5,216.0 L 151.5,217.0 L 151.0,217.5 L 150.5,218.0 L 150.0,218.5 L 149.5,219.0 L 149.5,220.0 L 149.5,221.0 L 149.0,221.5 L 148.5,222.0 L 148.0,222.5 L 147.5,223.0 L 147.5,224.0 L 147.5,225.0 L 147.0,225.5 L 146.5,226.0 L 146.0,226.5 L 145.5,227.0 L 145.0,227.5 Z" fill="#FBC00A" fill-rule="evenodd"/> <path d="M 529.0,212.5 L 528.0,212.5 L 527.5,212.0 L 527.0,211.5 L 526.5,211.0 L 526.5,210.0 L 526.0,209.5 L 525.5,209.0 L 525.0,208.5 L 524.5,208.0 L 524.5,207.0 L 524.0,206.5 L 523.5,206.0 L 523.0,205.5 L 522.5,205.0 L 522.5,204.0 L 522.0,203.5 L 521.5,203.0 L 521.0,202.5 L 520.5,202.0 L 520.5,201.0 L 520.0,200.5 L 519.5,200.0 L 519.0,199.5 L 518.5,199.0 L 518.0,198.5 L 517.5,198.0 L 517.5,197.0 L 517.0,196.5 L 516.5,196.0 L 516.0,195.5 L 515.5,195.0 L 515.5,194.0 L 515.0,193.5 L 514.5,193.0 L 514.0,192.5 L 513.5,192.0 L 513.0,191.5 L 512.5,191.0 L 512.0,190.5 L 511.5,190.0 L 511.5,189.0 L 511.0,188.5 L 510.5,188.0 L 510.0,187.5 L 509.5,187.0 L 509.0,186.5 L 508.5,186.0 L 508.0,185.5 L 507.5,185.0 L 507.5,184.0 L 507.0,183.5 L 506.5,183.0 L 506.0,182.5 L 505.5,182.0 L 505.0,181.5 L 504.5,181.0 L 504.0,180.5 L 503.5,180.0 L 503.0,179.5 L 502.5,179.0 L 502.0,178.5 L 501.5,178.0 L 501.0,177.5 L 500.5,177.0 L 500.0,176.5 L 499.5,176.0 L 499.0,175.5 L 498.5,175.0 L 498.0,174.5 L 497.5,174.0 L 497.0,173.5 L 496.5,173.0 L 496.0,172.5 L 495.5,172.0 L 495.0,171.5 L 494.5,171.0 L 494.5,170.0 L 494.5,169.0 L 495.0,168.5 L 495.5,168.0 L 496.0,167.5 L 497.0,167.5 L 498.0,167.5 L 499.0,167.5 L 499.5,167.0 L 500.0,166.5 L 501.0,166.5 L 502.0,166.5 L 503.0,166.5 L 504.0,166.5 L 504.5,166.0 L 505.0,165.5 L 506.0,165.5 L 507.0,165.5 L 508.0,165.5 L 509.0,165.5 L 509.5,165.0 L 510.0,164.5 L 511.0,164.5 L 512.0,164.5 L 512.5,164.0 L 513.0,163.5 L 514.0,163.5 L 515.0,163.5 L 516.0,163.5 L 516.5,163.0 L 517.0,162.5 L 518.0,162.5 L 519.0,162.5 L 520.0,162.5 L 520.5,162.0 L 521.0,161.5 L 522.0,161.5 L 523.0,161.5 L 524.0,161.5 L 525.0,161.5 L 525.5,161.0 L 526.0,160.5 L 527.0,160.5 L 528.0,160.5 L 529.0,160.5 L 529.5,160.0 L 530.0,159.5 L 531.0,159.5 L 532.0,159.5 L 533.0,159.5 L 533.5,159.0 L 534.0,158.5 L 535.0,158.5 L 536.0,158.5 L 536.5,158.0 L 537.0,157.5 L 538.0,157.5 L 539.0,157.5 L 540.0,157.5 L 541.0,157.5 L 541.5,157.0 L 542.0,156.5 L 543.0,156.5 L 544.0,156.5 L 545.0,156.5 L 545.5,156.0 L 546.0,155.5 L 547.0,155.5 L 548.0,155.5 L 549.0,155.5 L 550.0,155.5 L 550.5,155.0 L 551.0,154.5 L 552.0,154.5 L 553.0,154.5 L 554.0,154.5 L 554.5,154.0 L 555.0,153.5 L 556.0,153.5 L 557.0,153.5 L 558.0,153.5 L 558.5,153.0 L 559.0,152.5 L 560.0,152.5 L 561.0,152.5 L 561.5,152.0 L 562.0,151.5 L 563.0,151.5 L 564.0,151.5 L 565.0,151.5 L 566.0,151.5 L 566.5,151.0 L 567.0,150.5 L 568.0,150.5 L 569.0,150.5 L 569.5,150.0 L 570.0,149.5 L 571.0,149.5 L 572.0,149.5 L 573.0,149.5 L 574.0,149.5 L 574.5,149.0 L 575.0,148.5 L 576.0,148.5 L 577.0,148.5 L 578.0,148.5 L 578.5,148.0 L 579.0,147.5 L 580.0,147.5 L 581.0,147.5 L 582.0,147.5 L 583.0,147.5 L 583.5,147.0 L 584.0,146.5 L 585.0,146.5 L 586.0,146.5 L 587.0,146.5 L 587.5,146.0 L 588.0,145.5 L 589.0,145.5 L 589.5,146.0 L 590.0,146.5 L 590.5,147.0 L 591.0,147.5 L 591.5,148.0 L 592.0,148.5 L 592.5,149.0 L 592.0,149.5 L 591.5,150.0 L 591.5,151.0 L 591.5,152.0 L 591.0,152.5 L 590.5,153.0 L 590.5,154.0 L 590.0,154.5 L 589.5,155.0 L 589.0,155.5 L 588.5,156.0 L 588.0,156.5 L 587.5,157.0 L 587.5,158.0 L 587.0,158.5 L 586.5,159.0 L 586.0,159.5 L 585.5,160.0 L 585.5,161.0 L 585.0,161.5 L 584.5,162.0 L 584.0,162.5 L 583.5,163.0 L 583.5,164.0 L 583.0,164.5 L 582.5,165.0 L 582.0,165.5 L 581.5,166.0 L 581.0,166.5 L 580.5,167.0 L 580.5,168.0 L 580.0,168.5 L 579.5,169.0 L 579.0,169.5 L 578.5,170.0 L 578.5,171.0 L 578.0,171.5 L 577.5,172.0 L 577.0,172.5 L 576.5,173.0 L 576.0,173.5 L 575.5,174.0 L 575.5,175.0 L 575.0,175.5 L 574.5,176.0 L 574.0,176.5 L 573.5,177.0 L 573.5,178.0 L 573.0,178.5 L 572.5,179.0 L 572.0,179.5 L 571.5,180.0 L 571.5,181.0 L 571.0,181.5 L 570.5,182.0 L 570.0,182.5 L 569.5,183.0 L 569.5,184.0 L 569.0,184.5 L 568.5,185.0 L 568.0,185.5 L 567.5,186.0 L 567.0,186.5 L 566.5,187.0 L 566.5,188.0 L 566.0,188.5 L 565.5,189.0 L 565.0,189.5 L 564.5,190.0 L 564.5,191.0 L 564.0,191.5 L 563.5,192.0 L 563.0,192.5 L 562.5,193.0 L 562.5,194.0 L 562.0,194.5 L 561.5,195.0 L 561.0,195.5 L 560.5,196.0 L 560.0,196.5 L 559.5,197.0 L 559.5,198.0 L 559.0,198.5 L 558.5,199.0 L 558.0,199.5 L 557.5,200.0 L 557.5,201.0 L 557.0,201.5 L 556.5,202.0 L 556.0,202.5 L 555.5,203.0 L 555.0,203.5 L 554.0,203.5 L 553.5,204.0 L 553.0,204.5 L 552.0,204.5 L 551.0,204.5 L 550.5,205.0 L 550.0,205.5 L 549.0,205.5 L 548.0,205.5 L 547.0,205.5 L 546.5,206.0 L 546.0,206.5 L 545.0,206.5 L 544.5,207.0 L 544.0,207.5 L 543.0,207.5 L 542.0,207.5 L 541.0,207.5 L 540.5,208.0 L 540.0,208.5 L 539.0,208.5 L 538.0,208.5 L 537.5,209.0 L 537.0,209.5 L 536.0,209.5 L 535.0,209.5 L 534.5,210.0 L 534.0,210.5 L 533.0,210.5 L 532.5,211.0 L 532.0,211.5 L 531.0,211.5 L 530.0,211.5 L 529.5,212.0 L 529.0,212.5 Z" fill="#FBC00A" fill-rule="evenodd"/> <path d="M 191.0,385.5 L 189.0,385.5 L 187.0,385.5 L 186.0,384.5 L 184.5,384.0 L 183.0,383.5 L 182.0,382.5 L 180.5,382.0 L 179.0,381.5 L 178.0,380.5 L 176.5,380.0 L 175.0,379.5 L 174.0,378.5 L 172.5,378.0 L 171.0,377.5 L 170.0,376.5 L 169.0,375.5 L 167.5,375.0 L 166.0,374.5 L 165.0,373.5 L 163.5,373.0 L 162.0,372.5 L 161.0,371.5 L 159.5,371.0 L 158.0,370.5 L 157.0,369.5 L 155.5,369.0 L 154.5,368.0 L 153.0,367.5 L 152.0,366.5 L 151.5,365.0 L 151.0,363.5 L 150.5,362.0 L 150.0,360.5 L 149.5,359.0 L 149.5,357.0 L 149.5,355.0 L 148.5,354.0 L 148.5,352.0 L 148.5,350.0 L 147.5,349.0 L 147.5,347.0 L 147.5,345.0 L 147.5,343.0 L 147.5,341.0 L 147.0,339.5 L 146.5,338.0 L 146.5,336.0 L 146.5,334.0 L 146.5,332.0 L 146.5,330.0 L 146.5,328.0 L 146.5,326.0 L 146.5,324.0 L 146.5,322.0 L 145.5,321.0 L 146.0,319.5 L 146.5,318.0 L 146.5,316.0 L 146.5,314.0 L 146.5,312.0 L 146.5,310.0 L 146.5,308.0 L 146.5,306.0 L 147.0,304.5 L 147.5,303.0 L 147.5,301.0 L 147.5,299.0 L 147.5,297.0 L 148.0,295.5 L 148.5,294.0 L 148.5,292.0 L 149.0,290.5 L 149.5,289.0 L 149.5,287.0 L 149.5,285.0 L 150.0,283.5 L 150.5,282.0 L 150.5,280.0 L 151.5,279.0 L 151.5,277.0 L 152.0,275.5 L 152.5,274.0 L 152.5,272.0 L 153.5,271.0 L 153.5,269.0 L 154.0,267.5 L 154.5,266.0 L 155.0,264.5 L 155.5,263.0 L 155.5,261.0 L 156.5,260.0 L 157.0,258.5 L 157.5,257.0 L 157.5,255.0 L 158.5,254.0 L 159.0,252.5 L 159.5,251.0 L 160.0,249.5 L 161.0,248.5 L 162.0,247.5 L 163.0,248.5 L 164.0,249.5 L 165.5,250.0 L 166.5,251.0 L 168.0,251.5 L 169.0,252.5 L 170.0,253.5 L 171.0,254.5 L 172.5,255.0 L 173.5,256.0 L 174.5,257.0 L 176.0,257.5 L 177.0,258.5 L 178.0,259.5 L 179.5,260.0 L 180.5,261.0 L 181.5,262.0 L 183.0,262.5 L 184.0,263.5 L 185.0,264.5 L 186.0,265.5 L 187.5,266.0 L 188.5,267.0 L 190.0,267.5 L 191.0,268.5 L 192.0,269.5 L 193.0,270.5 L 194.0,271.5 L 195.5,272.0 L 196.5,273.0 L 198.0,273.5 L 199.0,274.5 L 200.0,275.5 L 201.5,276.0 L 202.5,277.0 L 203.5,278.0 L 205.0,278.5 L 206.0,279.5 L 207.0,280.5 L 208.0,281.5 L 209.5,282.0 L 210.5,283.0 L 212.0,283.5 L 213.0,284.5 L 214.0,285.5 L 215.0,286.5 L 216.5,287.0 L 217.5,288.0 L 218.5,289.0 L 220.0,289.5 L 221.0,290.5 L 222.0,291.5 L 223.5,292.0 L 224.5,293.0 L 225.5,294.0 L 227.0,294.5 L 228.0,295.5 L 229.0,296.5 L 230.0,297.5 L 231.5,298.0 L 232.5,299.0 L 234.0,299.5 L 235.0,300.5 L 236.0,301.5 L 237.5,302.0 L 238.5,303.0 L 239.5,304.0 L 241.0,304.5 L 242.0,305.5 L 243.0,306.5 L 244.0,307.5 L 245.5,308.0 L 246.5,309.0 L 248.0,309.5 L 249.0,310.5 L 250.0,311.5 L 251.0,312.5 L 252.5,313.0 L 253.5,314.0 L 254.5,315.0 L 256.0,315.5 L 257.0,316.5 L 258.0,317.5 L 259.5,318.0 L 260.5,319.0 L 261.5,320.0 L 262.5,321.0 L 264.0,321.5 L 265.0,322.5 L 266.0,323.5 L 267.5,324.0 L 268.5,325.0 L 270.0,325.5 L 271.0,326.5 L 272.0,327.5 L 273.0,328.5 L 274.5,329.0 L 275.5,330.0 L 276.5,331.0 L 278.0,331.5 L 279.0,332.5 L 280.0,333.5 L 281.5,334.0 L 282.5,335.0 L 283.5,336.0 L 283.0,337.5 L 282.0,338.5 L 280.5,339.0 L 279.0,339.5 L 278.0,340.5 L 277.0,341.5 L 275.0,341.5 L 274.0,342.5 L 273.0,343.5 L 271.0,343.5 L 270.0,344.5 L 269.0,345.5 L 267.5,346.0 L 266.0,346.5 L 265.0,347.5 L 263.5,348.0 L 262.0,348.5 L 261.0,349.5 L 259.5,350.0 L 258.0,350.5 L 257.0,351.5 L 255.5,352.0 L 254.0,352.5 L 253.0,353.5 L 251.5,354.0 L 250.0,354.5 L 249.0,355.5 L 247.5,356.0 L 246.0,356.5 L 245.0,357.5 L 243.5,358.0 L 242.5,359.0 L 241.0,359.5 L 240.0,360.5 L 238.5,361.0 L 237.0,361.5 L 236.0,362.5 L 234.5,363.0 L 233.0,363.5 L 232.0,364.5 L 230.5,365.0 L 229.0,365.5 L 228.0,366.5 L 226.5,367.0 L 225.0,367.5 L 224.0,368.5 L 223.0,369.5 L 221.0,369.5 L 220.0,370.5 L 219.0,371.5 L 217.5,372.0 L 216.0,372.5 L 215.0,373.5 L 213.5,374.0 L 212.0,374.5 L 211.0,375.5 L 209.5,376.0 L 208.0,376.5 L 207.0,377.5 L 205.5,378.0 L 204.0,378.5 L 203.0,379.5 L 201.5,380.0 L 200.0,380.5 L 199.0,381.5 L 197.5,382.0 L 196.0,382.5 L 195.0,383.5 L 193.5,384.0 L 192.0,384.5 L 191.0,385.5 Z" fill="#FBC00A" fill-rule="evenodd"/> <path d="M 124.0,326.5 L 123.0,326.5 L 122.5,326.0 L 122.0,325.5 L 121.0,325.5 L 120.5,325.0 L 120.0,324.5 L 119.0,324.5 L 118.5,324.0 L 118.0,323.5 L 117.0,323.5 L 116.5,323.0 L 116.0,322.5 L 115.0,322.5 L 114.5,322.0 L 114.0,321.5 L 113.0,321.5 L 112.5,321.0 L 112.0,320.5 L 111.5,320.0 L 111.0,319.5 L 110.0,319.5 L 109.5,319.0 L 109.0,318.5 L 108.0,318.5 L 107.5,318.0 L 107.0,317.5 L 106.0,317.5 L 105.5,317.0 L 105.0,316.5 L 104.0,316.5 L 103.5,316.0 L 103.0,315.5 L 102.0,315.5 L 101.5,315.0 L 101.0,314.5 L 100.0,314.5 L 99.5,314.0 L 99.0,313.5 L 98.5,313.0 L 98.0,312.5 L 97.0,312.5 L 96.5,312.0 L 96.0,311.5 L 95.0,311.5 L 94.5,311.0 L 94.0,310.5 L 93.0,310.5 L 92.5,310.0 L 92.0,309.5 L 91.0,309.5 L 90.5,309.0 L 90.0,308.5 L 89.0,308.5 L 88.5,308.0 L 88.0,307.5 L 87.0,307.5 L 86.5,307.0 L 86.0,306.5 L 85.5,306.0 L 85.0,305.5 L 84.0,305.5 L 83.0,305.5 L 82.5,305.0 L 82.0,304.5 L 81.5,304.0 L 81.0,303.5 L 80.0,303.5 L 79.5,303.0 L 79.0,302.5 L 78.0,302.5 L 77.5,302.0 L 77.0,301.5 L 76.0,301.5 L 75.5,301.0 L 75.0,300.5 L 74.0,300.5 L 73.5,300.0 L 73.0,299.5 L 72.0,299.5 L 71.5,299.0 L 71.0,298.5 L 70.5,298.0 L 70.0,297.5 L 69.0,297.5 L 68.5,297.0 L 68.0,296.5 L 67.0,296.5 L 66.5,296.0 L 66.0,295.5 L 65.0,295.5 L 64.5,295.0 L 64.0,294.5 L 63.0,294.5 L 62.5,294.0 L 62.0,293.5 L 61.0,293.5 L 60.5,293.0 L 60.0,292.5 L 59.5,292.0 L 59.0,291.5 L 58.0,291.5 L 57.0,291.5 L 56.5,291.0 L 56.0,290.5 L 55.5,290.0 L 55.0,289.5 L 54.0,289.5 L 53.5,289.0 L 53.0,288.5 L 52.0,288.5 L 51.5,288.0 L 51.0,287.5 L 50.0,287.5 L 49.5,287.0 L 49.0,286.5 L 48.0,286.5 L 47.5,286.0 L 47.0,285.5 L 46.0,285.5 L 45.5,285.0 L 45.0,284.5 L 44.0,284.5 L 43.5,284.0 L 43.0,283.5 L 42.5,283.0 L 42.0,282.5 L 41.5,282.0 L 41.0,281.5 L 40.5,281.0 L 40.5,280.0 L 40.5,279.0 L 40.5,278.0 L 41.0,277.5 L 41.5,277.0 L 42.0,276.5 L 42.5,276.0 L 43.0,275.5 L 44.0,275.5 L 45.0,275.5 L 46.0,275.5 L 47.0,275.5 L 47.5,275.0 L 48.0,274.5 L 49.0,274.5 L 50.0,274.5 L 50.5,274.0 L 51.0,273.5 L 52.0,273.5 L 53.0,273.5 L 54.0,273.5 L 55.0,273.5 L 56.0,273.5 L 56.5,273.0 L 57.0,272.5 L 58.0,272.5 L 59.0,272.5 L 59.5,272.0 L 60.0,271.5 L 61.0,271.5 L 62.0,271.5 L 63.0,271.5 L 64.0,271.5 L 64.5,271.0 L 65.0,270.5 L 66.0,270.5 L 67.0,270.5 L 68.0,270.5 L 68.5,270.0 L 69.0,269.5 L 70.0,269.5 L 71.0,269.5 L 72.0,269.5 L 72.5,269.0 L 73.0,268.5 L 74.0,268.5 L 75.0,268.5 L 76.0,268.5 L 77.0,268.5 L 77.5,268.0 L 78.0,267.5 L 79.0,267.5 L 80.0,267.5 L 81.0,267.5 L 81.5,267.0 L 82.0,266.5 L 83.0,266.5 L 84.0,266.5 L 84.5,266.0 L 85.0,265.5 L 86.0,265.5 L 87.0,265.5 L 88.0,265.5 L 89.0,265.5 L 90.0,265.5 L 90.5,265.0 L 91.0,264.5 L 92.0,264.5 L 93.0,264.5 L 94.0,264.5 L 94.5,264.0 L 95.0,263.5 L 96.0,263.5 L 97.0,263.5 L 98.0,263.5 L 99.0,263.5 L 99.5,263.0 L 100.0,262.5 L 101.0,262.5 L 102.0,262.5 L 103.0,262.5 L 103.5,262.0 L 104.0,261.5 L 105.0,261.5 L 106.0,261.5 L 107.0,261.5 L 107.5,261.0 L 108.0,260.5 L 109.0,260.5 L 110.0,260.5 L 111.0,260.5 L 111.5,260.0 L 112.0,259.5 L 113.0,259.5 L 114.0,259.5 L 115.0,259.5 L 116.0,259.5 L 116.5,259.0 L 117.0,258.5 L 118.0,258.5 L 119.0,258.5 L 119.5,258.0 L 120.0,257.5 L 121.0,257.5 L 122.0,257.5 L 123.0,257.5 L 124.0,257.5 L 124.5,257.0 L 125.0,256.5 L 126.0,256.5 L 127.0,256.5 L 128.0,256.5 L 128.5,256.0 L 129.0,255.5 L 130.0,255.5 L 131.0,255.5 L 132.0,255.5 L 133.0,255.5 L 133.5,256.0 L 134.0,256.5 L 134.5,257.0 L 134.5,258.0 L 134.5,259.0 L 134.5,260.0 L 134.0,260.5 L 133.5,261.0 L 133.5,262.0 L 133.5,263.0 L 133.5,264.0 L 133.0,264.5 L 132.5,265.0 L 132.5,266.0 L 132.5,267.0 L 132.0,267.5 L 131.5,268.0 L 131.5,269.0 L 131.5,270.0 L 131.5,271.0 L 131.5,272.0 L 131.5,273.0 L 131.0,273.5 L 130.5,274.0 L 130.5,275.0 L 130.5,276.0 L 130.5,277.0 L 130.5,278.0 L 130.0,278.5 L 129.5,279.0 L 129.5,280.0 L 129.5,281.0 L 129.5,282.0 L 129.5,283.0 L 129.0,283.5 L 128.5,284.0 L 128.5,285.0 L 128.5,286.0 L 128.5,287.0 L 128.5,288.0 L 128.5,289.0 L 128.0,289.5 L 127.5,290.0 L 127.5,291.0 L 127.5,292.0 L 127.5,293.0 L 127.5,294.0 L 127.5,295.0 L 127.5,296.0 L 127.5,297.0 L 127.0,297.5 L 126.5,298.0 L 126.5,299.0 L 126.5,300.0 L 126.5,301.0 L 126.5,302.0 L 126.5,303.0 L 126.5,304.0 L 126.5,305.0 L 126.5,306.0 L 126.0,306.5 L 125.5,307.0 L 125.5,308.0 L 125.5,309.0 L 125.5,310.0 L 125.5,311.0 L 125.5,312.0 L 125.5,313.0 L 125.5,314.0 L 125.5,315.0 L 125.5,316.0 L 125.5,317.0 L 125.5,318.0 L 125.5,319.0 L 125.5,320.0 L 125.5,321.0 L 125.5,322.0 L 125.5,323.0 L 125.5,324.0 L 125.5,325.0 L 125.0,325.5 L 124.5,326.0 L 124.0,326.5 Z" fill="#FBC00A" fill-rule="evenodd"/> <path d="M 556.0,329.5 L 555.5,329.0 L 555.0,328.5 L 554.5,328.0 L 554.5,327.0 L 554.5,326.0 L 554.5,325.0 L 554.5,324.0 L 555.0,323.5 L 555.5,323.0 L 556.0,322.5 L 556.5,322.0 L 557.0,321.5 L 558.0,321.5 L 558.5,321.0 L 559.0,320.5 L 560.0,320.5 L 560.5,320.0 L 561.0,319.5 L 562.0,319.5 L 562.5,319.0 L 563.0,318.5 L 564.0,318.5 L 564.5,318.0 L 565.0,317.5 L 566.0,317.5 L 566.5,317.0 L 567.0,316.5 L 567.5,316.0 L 568.0,315.5 L 569.0,315.5 L 569.5,315.0 L 570.0,314.5 L 571.0,314.5 L 571.5,314.0 L 572.0,313.5 L 573.0,313.5 L 573.5,313.0 L 574.0,312.5 L 574.5,312.0 L 575.0,311.5 L 576.0,311.5 L 576.5,311.0 L 577.0,310.5 L 578.0,310.5 L 578.5,310.0 L 579.0,309.5 L 580.0,309.5 L 580.5,309.0 L 581.0,308.5 L 581.5,308.0 L 582.0,307.5 L 583.0,307.5 L 583.5,307.0 L 584.0,306.5 L 584.5,306.0 L 585.0,305.5 L 586.0,305.5 L 586.5,305.0 L 587.0,304.5 L 588.0,304.5 L 588.5,304.0 L 589.0,303.5 L 589.5,303.0 L 590.0,302.5 L 591.0,302.5 L 591.5,302.0 L 592.0,301.5 L 593.0,301.5 L 593.5,301.0 L 594.0,300.5 L 594.5,300.0 L 595.0,299.5 L 596.0,299.5 L 596.5,299.0 L 597.0,298.5 L 597.5,298.0 L 598.0,297.5 L 599.0,297.5 L 599.5,297.0 L 600.0,296.5 L 600.5,296.0 L 601.0,295.5 L 602.0,295.5 L 602.5,295.0 L 603.0,294.5 L 603.5,294.0 L 604.0,293.5 L 604.5,293.0 L 605.0,292.5 L 605.5,292.0 L 606.0,291.5 L 607.0,291.5 L 607.5,291.0 L 608.0,290.5 L 608.5,290.0 L 609.0,289.5 L 610.0,289.5 L 610.5,289.0 L 611.0,288.5 L 611.5,288.0 L 612.0,287.5 L 612.5,287.0 L 613.0,286.5 L 613.5,286.0 L 614.0,285.5 L 615.0,285.5 L 615.5,285.0 L 616.0,284.5 L 616.5,284.0 L 617.0,283.5 L 617.5,283.0 L 618.0,282.5 L 619.0,282.5 L 619.5,282.0 L 620.0,281.5 L 620.5,281.0 L 621.0,280.5 L 621.5,280.0 L 622.0,279.5 L 622.5,279.0 L 623.0,278.5 L 623.5,278.0 L 624.0,277.5 L 624.5,277.0 L 625.0,276.5 L 625.5,276.0 L 626.0,275.5 L 627.0,275.5 L 628.0,275.5 L 629.0,275.5 L 630.0,275.5 L 631.0,275.5 L 632.0,275.5 L 632.5,276.0 L 633.0,276.5 L 634.0,276.5 L 635.0,276.5 L 636.0,276.5 L 636.5,277.0 L 637.0,277.5 L 638.0,277.5 L 638.5,278.0 L 639.0,278.5 L 639.5,279.0 L 640.0,279.5 L 640.5,280.0 L 641.0,280.5 L 641.5,281.0 L 641.5,282.0 L 641.0,282.5 L 640.5,283.0 L 640.5,284.0 L 640.0,284.5 L 639.5,285.0 L 639.0,285.5 L 638.0,285.5 L 637.5,286.0 L 637.0,286.5 L 636.5,287.0 L 636.0,287.5 L 635.0,287.5 L 634.5,288.0 L 634.0,288.5 L 633.0,288.5 L 632.5,289.0 L 632.0,289.5 L 631.0,289.5 L 630.5,290.0 L 630.0,290.5 L 629.0,290.5 L 628.5,291.0 L 628.0,291.5 L 627.0,291.5 L 626.5,292.0 L 626.0,292.5 L 625.0,292.5 L 624.5,293.0 L 624.0,293.5 L 623.0,293.5 L 622.5,294.0 L 622.0,294.5 L 621.5,295.0 L 621.0,295.5 L 620.0,295.5 L 619.0,295.5 L 618.5,296.0 L 618.0,296.5 L 617.5,297.0 L 617.0,297.5 L 616.0,297.5 L 615.0,297.5 L 614.5,298.0 L 614.0,298.5 L 613.5,299.0 L 613.0,299.5 L 612.0,299.5 L 611.5,300.0 L 611.0,300.5 L 610.0,300.5 L 609.5,301.0 L 609.0,301.5 L 608.0,301.5 L 607.5,302.0 L 607.0,302.5 L 606.0,302.5 L 605.5,303.0 L 605.0,303.5 L 604.0,303.5 L 603.5,304.0 L 603.0,304.5 L 602.0,304.5 L 601.5,305.0 L 601.0,305.5 L 600.0,305.5 L 599.5,306.0 L 599.0,306.5 L 598.5,307.0 L 598.0,307.5 L 597.0,307.5 L 596.0,307.5 L 595.5,308.0 L 595.0,308.5 L 594.5,309.0 L 594.0,309.5 L 593.0,309.5 L 592.5,310.0 L 592.0,310.5 L 591.0,310.5 L 590.5,311.0 L 590.0,311.5 L 589.0,311.5 L 588.5,312.0 L 588.0,312.5 L 587.0,312.5 L 586.5,313.0 L 586.0,313.5 L 585.0,313.5 L 584.5,314.0 L 584.0,314.5 L 583.0,314.5 L 582.5,315.0 L 582.0,315.5 L 581.0,315.5 L 580.5,316.0 L 580.0,316.5 L 579.5,317.0 L 579.0,317.5 L 578.0,317.5 L 577.5,318.0 L 577.0,318.5 L 576.0,318.5 L 575.5,319.0 L 575.0,319.5 L 574.0,319.5 L 573.5,320.0 L 573.0,320.5 L 572.0,320.5 L 571.5,321.0 L 571.0,321.5 L 570.0,321.5 L 569.5,322.0 L 569.0,322.5 L 568.0,322.5 L 567.5,323.0 L 567.0,323.5 L 566.0,323.5 L 565.5,324.0 L 565.0,324.5 L 564.0,324.5 L 563.5,325.0 L 563.0,325.5 L 562.0,325.5 L 561.5,326.0 L 561.0,326.5 L 560.5,327.0 L 560.0,327.5 L 559.0,327.5 L 558.0,327.5 L 557.5,328.0 L 557.0,328.5 L 556.5,329.0 L 556.0,329.5 Z" fill="#FBC00A" fill-rule="evenodd"/> <path d="M 459.0,478.5 L 458.0,477.5 L 457.5,476.0 L 457.5,474.0 L 457.5,472.0 L 458.5,471.0 L 458.5,469.0 L 458.5,467.0 L 458.5,465.0 L 458.5,463.0 L 459.0,461.5 L 459.5,460.0 L 459.5,458.0 L 459.5,456.0 L 459.5,454.0 L 459.5,452.0 L 459.5,450.0 L 460.5,449.0 L 460.5,447.0 L 460.5,445.0 L 461.0,443.5 L 462.0,442.5 L 463.5,442.0 L 465.0,441.5 L 466.0,440.5 L 467.5,440.0 L 469.0,439.5 L 470.0,438.5 L 471.5,438.0 L 473.0,437.5 L 474.0,436.5 L 475.5,436.0 L 477.0,435.5 L 478.0,434.5 L 479.5,434.0 L 481.0,433.5 L 482.0,432.5 L 483.0,431.5 L 484.5,431.0 L 485.5,430.0 L 487.0,429.5 L 488.0,428.5 L 489.0,427.5 L 490.0,426.5 L 491.0,425.5 L 492.0,424.5 L 493.0,423.5 L 494.0,422.5 L 495.0,421.5 L 496.0,420.5 L 497.0,419.5 L 498.0,418.5 L 498.5,417.0 L 499.5,416.0 L 500.0,414.5 L 501.0,413.5 L 501.5,412.0 L 502.0,410.5 L 502.5,409.0 L 503.0,407.5 L 503.5,406.0 L 503.5,404.0 L 503.5,402.0 L 503.5,400.0 L 503.5,398.0 L 503.5,396.0 L 503.5,394.0 L 503.0,392.5 L 502.5,391.0 L 502.0,389.5 L 501.5,388.0 L 501.0,386.5 L 500.0,385.5 L 499.5,384.0 L 498.5,383.0 L 498.0,381.5 L 497.0,380.5 L 496.5,379.0 L 495.5,378.0 L 494.5,377.0 L 493.5,376.0 L 492.5,375.0 L 491.5,374.0 L 490.0,373.5 L 489.0,372.5 L 488.0,371.5 L 486.5,371.0 L 485.0,370.5 L 484.0,369.5 L 482.0,369.5 L 480.5,369.0 L 479.0,368.5 L 477.0,368.5 L 475.0,368.5 L 473.5,368.0 L 472.5,367.0 L 473.5,366.0 L 475.0,365.5 L 476.0,364.5 L 477.5,364.0 L 479.0,363.5 L 480.0,362.5 L 481.5,362.0 L 483.0,361.5 L 484.0,360.5 L 485.5,360.0 L 487.0,359.5 L 488.0,358.5 L 489.0,357.5 L 490.5,357.0 L 492.0,356.5 L 493.0,355.5 L 494.5,355.0 L 496.0,354.5 L 497.0,353.5 L 498.5,353.0 L 500.0,352.5 L 501.0,351.5 L 502.5,351.0 L 503.5,350.0 L 505.0,349.5 L 506.0,348.5 L 507.5,348.0 L 509.0,347.5 L 510.0,346.5 L 511.5,346.0 L 513.0,345.5 L 514.0,344.5 L 515.5,344.0 L 517.0,343.5 L 518.0,342.5 L 519.5,342.0 L 521.0,341.5 L 522.0,340.5 L 523.0,339.5 L 524.5,339.0 L 526.0,338.5 L 527.0,337.5 L 528.5,337.0 L 530.0,336.5 L 531.0,335.5 L 532.5,336.0 L 533.5,337.0 L 533.5,339.0 L 532.5,340.0 L 532.5,342.0 L 532.5,344.0 L 532.5,346.0 L 531.5,347.0 L 531.5,349.0 L 531.5,351.0 L 531.5,353.0 L 531.0,354.5 L 530.5,356.0 L 530.5,358.0 L 530.0,359.5 L 529.5,361.0 L 529.5,363.0 L 529.5,365.0 L 528.5,366.0 L 528.5,368.0 L 528.0,369.5 L 527.5,371.0 L 527.5,373.0 L 526.5,374.0 L 526.5,376.0 L 525.5,377.0 L 525.5,379.0 L 525.0,380.5 L 524.5,382.0 L 524.0,383.5 L 523.5,385.0 L 523.0,386.5 L 522.5,388.0 L 522.0,389.5 L 521.5,391.0 L 521.0,392.5 L 520.5,394.0 L 519.5,395.0 L 519.5,397.0 L 518.5,398.0 L 518.0,399.5 L 517.5,401.0 L 517.0,402.5 L 516.5,404.0 L 515.5,405.0 L 515.0,406.5 L 514.5,408.0 L 513.5,409.0 L 513.0,410.5 L 512.5,412.0 L 511.5,413.0 L 511.0,414.5 L 510.5,416.0 L 509.5,417.0 L 509.0,418.5 L 508.5,420.0 L 507.5,421.0 L 507.0,422.5 L 506.0,423.5 L 505.5,425.0 L 504.5,426.0 L 504.0,427.5 L 503.0,428.5 L 502.5,430.0 L 501.5,431.0 L 501.0,432.5 L 500.0,433.5 L 499.5,435.0 L 498.5,436.0 L 497.5,437.0 L 496.5,438.0 L 496.0,439.5 L 495.0,440.5 L 494.0,441.5 L 493.5,443.0 L 492.5,444.0 L 491.5,445.0 L 490.5,446.0 L 490.0,447.5 L 489.0,448.5 L 488.0,449.5 L 487.0,450.5 L 486.0,451.5 L 485.5,453.0 L 484.5,454.0 L 483.5,455.0 L 482.5,456.0 L 481.5,457.0 L 480.5,458.0 L 479.5,459.0 L 478.5,460.0 L 477.5,461.0 L 476.5,462.0 L 475.5,463.0 L 474.5,464.0 L 473.5,465.0 L 472.5,466.0 L 471.5,467.0 L 470.5,468.0 L 469.5,469.0 L 468.5,470.0 L 467.5,471.0 L 466.5,472.0 L 465.5,473.0 L 464.5,474.0 L 463.5,475.0 L 462.0,475.5 L 461.0,476.5 L 460.0,477.5 L 459.0,478.5 Z" fill="#FBC00A" fill-rule="evenodd"/> <path d="M 535.0,427.5 L 534.0,427.5 L 533.0,427.5 L 532.0,427.5 L 531.0,427.5 L 530.0,427.5 L 529.5,427.0 L 529.0,426.5 L 528.5,426.0 L 529.0,425.5 L 529.5,425.0 L 529.5,424.0 L 530.0,423.5 L 530.5,423.0 L 530.5,422.0 L 531.0,421.5 L 531.5,421.0 L 531.5,420.0 L 532.0,419.5 L 532.5,419.0 L 532.5,418.0 L 533.0,417.5 L 533.5,417.0 L 533.5,416.0 L 533.5,415.0 L 534.0,414.5 L 534.5,414.0 L 534.5,413.0 L 535.0,412.5 L 535.5,412.0 L 535.5,411.0 L 536.0,410.5 L 536.5,410.0 L 536.5,409.0 L 537.0,408.5 L 537.5,408.0 L 537.5,407.0 L 537.5,406.0 L 538.0,405.5 L 538.5,405.0 L 538.5,404.0 L 539.0,403.5 L 539.5,403.0 L 539.5,402.0 L 539.5,401.0 L 540.0,400.5 L 540.5,400.0 L 540.5,399.0 L 541.0,398.5 L 541.5,398.0 L 541.5,397.0 L 541.5,396.0 L 542.0,395.5 L 542.5,395.0 L 542.5,394.0 L 542.5,393.0 L 543.0,392.5 L 543.5,392.0 L 543.5,391.0 L 543.5,390.0 L 544.0,389.5 L 544.5,389.0 L 544.5,388.0 L 544.5,387.0 L 545.0,386.5 L 545.5,386.0 L 545.5,385.0 L 545.5,384.0 L 545.5,383.0 L 546.0,382.5 L 546.5,382.0 L 546.5,381.0 L 546.5,380.0 L 547.0,379.5 L 547.5,379.0 L 547.5,378.0 L 547.5,377.0 L 547.5,376.0 L 547.5,375.0 L 548.0,374.5 L 548.5,374.0 L 548.5,373.0 L 548.5,372.0 L 548.5,371.0 L 549.0,370.5 L 549.5,370.0 L 549.5,369.0 L 549.5,368.0 L 549.5,367.0 L 549.5,366.0 L 549.5,365.0 L 550.0,364.5 L 550.5,364.0 L 550.5,363.0 L 550.5,362.0 L 550.5,361.0 L 550.5,360.0 L 551.0,359.5 L 551.5,359.0 L 551.5,358.0 L 551.5,357.0 L 551.5,356.0 L 551.5,355.0 L 552.0,354.5 L 552.5,354.0 L 553.0,353.5 L 553.5,354.0 L 554.0,354.5 L 554.5,355.0 L 555.0,355.5 L 555.5,356.0 L 556.0,356.5 L 557.0,356.5 L 557.5,357.0 L 558.0,357.5 L 558.5,358.0 L 559.0,358.5 L 559.5,359.0 L 560.0,359.5 L 560.5,360.0 L 561.0,360.5 L 561.5,361.0 L 562.0,361.5 L 562.5,362.0 L 563.0,362.5 L 564.0,362.5 L 564.5,363.0 L 565.0,363.5 L 565.5,364.0 L 566.0,364.5 L 566.5,365.0 L 567.0,365.5 L 567.5,366.0 L 568.0,366.5 L 568.5,367.0 L 569.0,367.5 L 570.0,367.5 L 570.5,368.0 L 571.0,368.5 L 571.5,369.0 L 572.0,369.5 L 572.5,370.0 L 573.0,370.5 L 573.5,371.0 L 574.0,371.5 L 574.5,372.0 L 575.0,372.5 L 575.5,373.0 L 576.0,373.5 L 577.0,373.5 L 577.5,374.0 L 578.0,374.5 L 578.5,375.0 L 579.0,375.5 L 579.5,376.0 L 580.0,376.5 L 580.5,377.0 L 581.0,377.5 L 581.5,378.0 L 582.0,378.5 L 582.5,379.0 L 583.0,379.5 L 584.0,379.5 L 584.5,380.0 L 585.0,380.5 L 585.5,381.0 L 586.0,381.5 L 586.5,382.0 L 587.0,382.5 L 587.5,383.0 L 588.0,383.5 L 588.5,384.0 L 589.0,384.5 L 589.5,385.0 L 590.0,385.5 L 591.0,385.5 L 591.5,386.0 L 592.0,386.5 L 592.5,387.0 L 593.0,387.5 L 593.5,388.0 L 594.0,388.5 L 594.5,389.0 L 595.0,389.5 L 595.5,390.0 L 596.0,390.5 L 597.0,390.5 L 597.5,391.0 L 598.0,391.5 L 598.5,392.0 L 599.0,392.5 L 599.5,393.0 L 600.0,393.5 L 600.5,394.0 L 601.0,394.5 L 601.5,395.0 L 602.0,395.5 L 602.5,396.0 L 603.0,396.5 L 603.5,397.0 L 604.0,397.5 L 605.0,397.5 L 605.5,398.0 L 606.0,398.5 L 606.5,399.0 L 607.0,399.5 L 607.5,400.0 L 608.0,400.5 L 608.5,401.0 L 609.0,401.5 L 610.0,401.5 L 610.5,402.0 L 611.0,402.5 L 611.5,403.0 L 612.0,403.5 L 612.5,404.0 L 613.0,404.5 L 613.5,405.0 L 614.0,405.5 L 614.5,406.0 L 615.0,406.5 L 615.5,407.0 L 616.0,407.5 L 617.0,407.5 L 617.5,408.0 L 618.0,408.5 L 618.5,409.0 L 619.0,409.5 L 619.5,410.0 L 620.0,410.5 L 620.5,411.0 L 621.0,411.5 L 622.0,411.5 L 622.5,412.0 L 623.0,412.5 L 623.5,413.0 L 624.0,413.5 L 624.5,414.0 L 625.0,414.5 L 625.5,415.0 L 626.0,415.5 L 626.5,416.0 L 627.0,416.5 L 627.5,417.0 L 628.0,417.5 L 628.5,418.0 L 629.0,418.5 L 629.5,419.0 L 629.5,420.0 L 629.5,421.0 L 629.0,421.5 L 628.5,422.0 L 628.0,422.5 L 627.5,423.0 L 627.0,423.5 L 626.0,423.5 L 625.0,423.5 L 624.5,424.0 L 624.0,424.5 L 623.0,424.5 L 622.0,424.5 L 621.0,424.5 L 620.0,424.5 L 619.0,424.5 L 618.0,424.5 L 617.0,424.5 L 616.0,424.5 L 615.0,424.5 L 614.0,424.5 L 613.0,424.5 L 612.0,424.5 L 611.0,424.5 L 610.0,424.5 L 609.0,424.5 L 608.0,424.5 L 607.0,424.5 L 606.0,424.5 L 605.0,424.5 L 604.0,424.5 L 603.0,424.5 L 602.0,424.5 L 601.0,424.5 L 600.0,424.5 L 599.5,425.0 L 599.0,425.5 L 598.0,425.5 L 597.0,425.5 L 596.0,425.5 L 595.0,425.5 L 594.0,425.5 L 593.0,425.5 L 592.0,425.5 L 591.0,425.5 L 590.0,425.5 L 589.0,425.5 L 588.0,425.5 L 587.0,425.5 L 586.0,425.5 L 585.0,425.5 L 584.0,425.5 L 583.0,425.5 L 582.0,425.5 L 581.0,425.5 L 580.0,425.5 L 579.0,425.5 L 578.0,425.5 L 577.0,425.5 L 576.0,425.5 L 575.0,425.5 L 574.0,425.5 L 573.0,425.5 L 572.0,425.5 L 571.0,425.5 L 570.0,425.5 L 569.0,425.5 L 568.0,425.5 L 567.0,425.5 L 566.0,425.5 L 565.0,425.5 L 564.0,425.5 L 563.0,425.5 L 562.0,425.5 L 561.0,425.5 L 560.5,426.0 L 560.0,426.5 L 559.0,426.5 L 558.0,426.5 L 557.0,426.5 L 556.0,426.5 L 555.0,426.5 L 554.0,426.5 L 553.0,426.5 L 552.0,426.5 L 551.0,426.5 L 550.0,426.5 L 549.0,426.5 L 548.0,426.5 L 547.0,426.5 L 546.0,426.5 L 545.0,426.5 L 544.0,426.5 L 543.0,426.5 L 542.0,426.5 L 541.0,426.5 L 540.0,426.5 L 539.0,426.5 L 538.0,426.5 L 537.0,426.5 L 536.0,426.5 L 535.5,427.0 L 535.0,427.5 Z" fill="#FBC00A" fill-rule="evenodd"/> <path d="M 100.0,424.5 L 99.0,424.5 L 98.0,424.5 L 97.0,424.5 L 96.0,424.5 L 95.0,424.5 L 94.0,424.5 L 93.0,424.5 L 92.0,424.5 L 91.0,424.5 L 90.5,424.0 L 90.0,423.5 L 89.0,423.5 L 88.0,423.5 L 87.0,423.5 L 86.0,423.5 L 85.0,423.5 L 84.0,423.5 L 83.0,423.5 L 82.0,423.5 L 81.0,423.5 L 80.0,423.5 L 79.0,423.5 L 78.0,423.5 L 77.0,423.5 L 76.0,423.5 L 75.0,423.5 L 74.0,423.5 L 73.0,423.5 L 72.0,423.5 L 71.0,423.5 L 70.0,423.5 L 69.0,423.5 L 68.0,423.5 L 67.0,423.5 L 66.0,423.5 L 65.0,423.5 L 64.0,423.5 L 63.0,423.5 L 62.0,423.5 L 61.0,423.5 L 60.0,423.5 L 59.0,423.5 L 58.5,423.0 L 58.0,422.5 L 57.0,422.5 L 56.5,422.0 L 56.0,421.5 L 55.5,421.0 L 55.5,420.0 L 55.5,419.0 L 56.0,418.5 L 56.5,418.0 L 56.5,417.0 L 57.0,416.5 L 57.5,416.0 L 58.0,415.5 L 58.5,415.0 L 59.0,414.5 L 59.5,414.0 L 60.0,413.5 L 60.5,413.0 L 61.0,412.5 L 61.5,412.0 L 62.0,411.5 L 62.5,411.0 L 63.0,410.5 L 63.5,410.0 L 64.0,409.5 L 65.0,409.5 L 65.5,409.0 L 66.0,408.5 L 66.5,408.0 L 67.0,407.5 L 67.5,407.0 L 68.0,406.5 L 68.5,406.0 L 69.0,405.5 L 69.5,405.0 L 70.0,404.5 L 71.0,404.5 L 71.5,404.0 L 72.0,403.5 L 72.5,403.0 L 73.0,402.5 L 73.5,402.0 L 74.0,401.5 L 74.5,401.0 L 75.0,400.5 L 75.5,400.0 L 76.0,399.5 L 77.0,399.5 L 77.5,399.0 L 78.0,398.5 L 78.5,398.0 L 79.0,397.5 L 80.0,397.5 L 80.5,398.0 L 81.0,398.5 L 81.5,399.0 L 82.0,399.5 L 82.5,400.0 L 83.0,400.5 L 83.5,401.0 L 84.0,401.5 L 84.5,402.0 L 85.0,402.5 L 85.5,403.0 L 86.0,403.5 L 86.5,404.0 L 87.0,404.5 L 87.5,405.0 L 88.0,405.5 L 88.5,406.0 L 88.5,407.0 L 89.0,407.5 L 89.5,408.0 L 90.0,408.5 L 90.5,409.0 L 91.0,409.5 L 91.5,410.0 L 92.0,410.5 L 92.5,411.0 L 93.0,411.5 L 93.5,412.0 L 93.5,413.0 L 94.0,413.5 L 94.5,414.0 L 95.0,414.5 L 95.5,415.0 L 96.0,415.5 L 96.5,416.0 L 97.0,416.5 L 97.5,417.0 L 98.0,417.5 L 98.5,418.0 L 98.5,419.0 L 99.0,419.5 L 99.5,420.0 L 100.0,420.5 L 100.5,421.0 L 101.0,421.5 L 101.5,422.0 L 101.5,423.0 L 101.0,423.5 L 100.5,424.0 L 100.0,424.5 Z" fill="#FBC00A" fill-rule="evenodd"/> <path d="M 347.0,522.5 L 345.0,522.5 L 343.0,522.5 L 341.0,522.5 L 339.0,522.5 L 337.0,522.5 L 335.0,522.5 L 333.5,522.0 L 332.0,521.5 L 330.0,521.5 L 328.0,521.5 L 326.0,521.5 L 324.0,521.5 L 322.0,521.5 L 320.0,521.5 L 318.5,521.0 L 317.0,520.5 L 315.0,520.5 L 313.0,520.5 L 312.0,519.5 L 310.0,519.5 L 308.0,519.5 L 306.0,519.5 L 305.0,518.5 L 303.0,518.5 L 302.0,517.5 L 300.0,517.5 L 298.0,517.5 L 296.5,517.0 L 295.0,516.5 L 293.0,516.5 L 292.0,515.5 L 290.0,515.5 L 288.5,515.0 L 287.0,514.5 L 286.0,513.5 L 284.0,513.5 L 282.5,513.0 L 281.0,512.5 L 279.5,512.0 L 278.0,511.5 L 276.5,511.0 L 275.0,510.5 L 274.0,509.5 L 272.0,509.5 L 271.0,508.5 L 269.5,508.0 L 268.0,507.5 L 266.5,507.0 L 265.0,506.5 L 263.5,506.0 L 262.0,505.5 L 261.0,504.5 L 259.5,504.0 L 258.0,503.5 L 256.5,503.0 L 255.5,502.0 L 254.0,501.5 L 252.5,501.0 L 251.5,500.0 L 250.0,499.5 L 249.0,498.5 L 247.5,498.0 L 246.0,497.5 L 245.0,496.5 L 243.5,496.0 L 242.5,495.0 L 241.0,494.5 L 240.0,493.5 L 239.0,492.5 L 237.5,492.0 L 236.5,491.0 L 235.0,490.5 L 234.0,489.5 L 233.0,488.5 L 231.5,488.0 L 230.5,487.0 L 229.5,486.0 L 228.0,485.5 L 227.0,484.5 L 226.0,483.5 L 225.0,482.5 L 223.5,482.0 L 222.5,481.0 L 221.5,480.0 L 220.0,479.5 L 219.0,478.5 L 218.0,477.5 L 217.0,476.5 L 216.0,475.5 L 215.5,474.0 L 215.5,472.0 L 216.5,471.0 L 216.5,469.0 L 217.0,467.5 L 218.0,466.5 L 219.5,466.0 L 221.0,465.5 L 223.0,465.5 L 224.0,464.5 L 226.0,464.5 L 227.0,463.5 L 229.0,463.5 L 231.0,463.5 L 232.0,462.5 L 234.0,462.5 L 235.0,461.5 L 237.0,461.5 L 238.5,461.0 L 240.0,460.5 L 241.5,460.0 L 243.0,459.5 L 244.5,459.0 L 246.0,458.5 L 247.5,458.0 L 249.0,457.5 L 251.0,457.5 L 252.0,456.5 L 254.0,456.5 L 255.0,455.5 L 257.0,455.5 L 258.0,454.5 L 260.0,454.5 L 261.0,453.5 L 263.0,453.5 L 264.0,452.5 L 266.0,452.5 L 267.0,451.5 L 269.0,451.5 L 270.0,450.5 L 271.5,450.0 L 273.0,449.5 L 274.5,449.0 L 276.0,448.5 L 277.5,448.0 L 279.0,447.5 L 280.5,447.0 L 282.0,446.5 L 283.0,445.5 L 285.0,445.5 L 286.0,444.5 L 288.0,444.5 L 289.0,443.5 L 291.0,443.5 L 292.0,442.5 L 293.5,442.0 L 295.0,441.5 L 296.5,441.0 L 298.0,440.5 L 299.0,439.5 L 301.0,439.5 L 302.0,438.5 L 303.5,438.0 L 305.0,437.5 L 306.5,437.0 L 308.0,436.5 L 309.5,436.0 L 311.0,435.5 L 312.0,434.5 L 313.5,434.0 L 315.0,433.5 L 316.5,433.0 L 318.0,432.5 L 319.0,431.5 L 321.0,431.5 L 322.0,430.5 L 323.5,430.0 L 325.0,429.5 L 326.5,429.0 L 328.0,428.5 L 329.0,427.5 L 331.0,427.5 L 332.0,426.5 L 333.5,426.0 L 335.0,425.5 L 336.5,425.0 L 338.0,424.5 L 339.0,423.5 L 340.5,423.0 L 342.0,422.5 L 343.5,422.0 L 345.0,421.5 L 346.0,420.5 L 347.5,420.0 L 349.0,419.5 L 350.5,419.0 L 352.0,418.5 L 353.0,417.5 L 355.0,417.5 L 356.0,416.5 L 357.0,417.5 L 358.0,418.5 L 358.5,420.0 L 359.0,421.5 L 359.5,423.0 L 359.5,425.0 L 360.5,426.0 L 361.0,427.5 L 361.5,429.0 L 361.5,431.0 L 362.5,432.0 L 362.5,434.0 L 363.5,435.0 L 363.5,437.0 L 364.0,438.5 L 364.5,440.0 L 365.0,441.5 L 365.5,443.0 L 365.5,445.0 L 366.5,446.0 L 366.5,448.0 L 367.5,449.0 L 367.5,451.0 L 368.0,452.5 L 368.5,454.0 L 369.0,455.5 L 369.5,457.0 L 369.5,459.0 L 370.5,460.0 L 370.5,462.0 L 371.5,463.0 L 371.5,465.0 L 372.0,466.5 L 372.5,468.0 L 373.0,469.5 L 373.5,471.0 L 373.5,473.0 L 374.5,474.0 L 374.5,476.0 L 375.0,477.5 L 375.5,479.0 L 376.0,480.5 L 376.5,482.0 L 376.5,484.0 L 377.5,485.0 L 377.5,487.0 L 378.0,488.5 L 378.5,490.0 L 379.0,491.5 L 379.5,493.0 L 379.5,495.0 L 380.5,496.0 L 380.5,498.0 L 381.5,499.0 L 381.5,501.0 L 382.0,502.5 L 382.5,504.0 L 383.0,505.5 L 383.5,507.0 L 383.5,509.0 L 384.0,510.5 L 384.5,512.0 L 385.5,513.0 L 385.5,515.0 L 385.0,516.5 L 384.0,517.5 L 382.0,517.5 L 380.5,518.0 L 379.0,518.5 L 377.0,518.5 L 375.5,519.0 L 374.0,519.5 L 372.0,519.5 L 370.0,519.5 L 369.0,520.5 L 367.0,520.5 L 365.0,520.5 L 363.0,520.5 L 362.0,521.5 L 360.0,521.5 L 358.0,521.5 L 356.0,521.5 L 354.0,521.5 L 352.0,521.5 L 350.0,521.5 L 348.0,521.5 L 347.0,522.5 Z" fill="#FBC00A" fill-rule="evenodd"/> <path d="M 555.0,541.5 L 554.0,541.5 L 553.0,541.5 L 552.0,541.5 L 551.0,541.5 L 550.5,541.0 L 550.0,540.5 L 549.0,540.5 L 548.5,540.0 L 548.0,539.5 L 547.0,539.5 L 546.0,539.5 L 545.5,539.0 L 545.0,538.5 L 544.0,538.5 L 543.5,538.0 L 543.0,537.5 L 542.0,537.5 L 541.0,537.5 L 540.5,537.0 L 540.0,536.5 L 539.0,536.5 L 538.5,536.0 L 538.0,535.5 L 537.0,535.5 L 536.0,535.5 L 535.5,535.0 L 535.0,534.5 L 534.0,534.5 L 533.5,534.0 L 533.0,533.5 L 532.0,533.5 L 531.0,533.5 L 530.5,533.0 L 530.0,532.5 L 529.5,532.0 L 529.0,531.5 L 528.0,531.5 L 527.0,531.5 L 526.5,531.0 L 526.0,530.5 L 525.0,530.5 L 524.5,530.0 L 524.0,529.5 L 523.0,529.5 L 522.5,529.0 L 522.0,528.5 L 521.0,528.5 L 520.5,528.0 L 520.0,527.5 L 519.0,527.5 L 518.0,527.5 L 517.5,527.0 L 517.0,526.5 L 516.0,526.5 L 515.5,526.0 L 515.0,525.5 L 514.0,525.5 L 513.5,525.0 L 513.0,524.5 L 512.0,524.5 L 511.0,524.5 L 510.5,524.0 L 510.0,523.5 L 509.0,523.5 L 508.5,523.0 L 508.0,522.5 L 507.0,522.5 L 506.5,522.0 L 506.0,521.5 L 505.0,521.5 L 504.0,521.5 L 503.5,521.0 L 503.0,520.5 L 502.0,520.5 L 501.5,520.0 L 501.0,519.5 L 500.0,519.5 L 499.5,519.0 L 499.0,518.5 L 498.0,518.5 L 497.5,518.0 L 497.0,517.5 L 496.0,517.5 L 495.0,517.5 L 494.5,517.0 L 494.0,516.5 L 493.0,516.5 L 492.5,516.0 L 492.0,515.5 L 491.0,515.5 L 490.0,515.5 L 489.5,515.0 L 489.0,514.5 L 488.0,514.5 L 487.5,514.0 L 487.0,513.5 L 486.0,513.5 L 485.5,513.0 L 485.0,512.5 L 484.0,512.5 L 483.5,512.0 L 483.0,511.5 L 482.0,511.5 L 481.0,511.5 L 480.5,511.0 L 480.0,510.5 L 479.0,510.5 L 478.5,510.0 L 478.0,509.5 L 477.0,509.5 L 476.5,509.0 L 476.0,508.5 L 475.0,508.5 L 474.5,508.0 L 474.0,507.5 L 473.0,507.5 L 472.0,507.5 L 471.5,507.0 L 471.0,506.5 L 470.0,506.5 L 469.5,506.0 L 469.0,505.5 L 468.0,505.5 L 467.0,505.5 L 466.5,505.0 L 466.0,504.5 L 465.0,504.5 L 464.5,504.0 L 464.0,503.5 L 463.5,503.0 L 463.0,502.5 L 462.5,502.0 L 463.0,501.5 L 463.5,501.0 L 464.0,500.5 L 464.5,500.0 L 465.0,499.5 L 466.0,499.5 L 466.5,499.0 L 467.0,498.5 L 467.5,498.0 L 468.0,497.5 L 469.0,497.5 L 469.5,497.0 L 470.0,496.5 L 470.5,496.0 L 471.0,495.5 L 471.5,495.0 L 472.0,494.5 L 472.5,494.0 L 473.0,493.5 L 473.5,493.0 L 474.0,492.5 L 475.0,492.5 L 475.5,492.0 L 476.0,491.5 L 476.5,491.0 L 477.0,490.5 L 477.5,490.0 L 478.0,489.5 L 478.5,489.0 L 479.0,488.5 L 479.5,488.0 L 480.0,487.5 L 480.5,487.0 L 481.0,486.5 L 482.0,486.5 L 482.5,486.0 L 483.0,485.5 L 483.5,485.0 L 484.0,484.5 L 484.5,484.0 L 485.0,483.5 L 485.5,483.0 L 486.0,482.5 L 486.5,482.0 L 487.0,481.5 L 487.5,481.0 L 488.0,480.5 L 488.5,480.0 L 489.0,479.5 L 489.5,479.0 L 490.0,478.5 L 490.5,478.0 L 491.0,477.5 L 491.5,477.0 L 492.0,476.5 L 492.5,476.0 L 493.0,475.5 L 493.5,475.0 L 494.0,474.5 L 494.5,474.0 L 495.0,473.5 L 495.5,473.0 L 496.0,472.5 L 496.5,472.0 L 497.0,471.5 L 497.5,471.0 L 497.5,470.0 L 498.0,469.5 L 498.5,469.0 L 499.0,468.5 L 499.5,468.0 L 500.0,467.5 L 500.5,467.0 L 501.0,466.5 L 501.5,466.0 L 502.0,465.5 L 502.5,465.0 L 503.0,464.5 L 503.5,464.0 L 504.0,463.5 L 504.5,463.0 L 504.5,462.0 L 505.0,461.5 L 505.5,461.0 L 506.0,460.5 L 506.5,460.0 L 507.0,459.5 L 507.5,459.0 L 507.5,458.0 L 508.0,457.5 L 508.5,457.0 L 509.0,456.5 L 509.5,456.0 L 510.0,455.5 L 510.5,455.0 L 511.0,454.5 L 511.5,454.0 L 511.5,453.0 L 512.0,452.5 L 512.5,452.0 L 513.0,451.5 L 513.5,451.0 L 513.5,450.0 L 514.0,449.5 L 514.5,449.0 L 515.0,448.5 L 515.5,448.0 L 516.0,447.5 L 516.5,448.0 L 517.0,448.5 L 517.5,449.0 L 518.0,449.5 L 518.5,450.0 L 518.5,451.0 L 519.0,451.5 L 519.5,452.0 L 519.5,453.0 L 519.5,454.0 L 520.0,454.5 L 520.5,455.0 L 520.5,456.0 L 521.0,456.5 L 521.5,457.0 L 521.5,458.0 L 521.5,459.0 L 522.0,459.5 L 522.5,460.0 L 523.0,460.5 L 523.5,461.0 L 523.5,462.0 L 523.5,463.0 L 524.0,463.5 L 524.5,464.0 L 524.5,465.0 L 525.0,465.5 L 525.5,466.0 L 525.5,467.0 L 526.0,467.5 L 526.5,468.0 L 526.5,469.0 L 527.0,469.5 L 527.5,470.0 L 527.5,471.0 L 527.5,472.0 L 528.0,472.5 L 528.5,473.0 L 528.5,474.0 L 529.0,474.5 L 529.5,475.0 L 529.5,476.0 L 530.0,476.5 L 530.5,477.0 L 530.5,478.0 L 530.5,479.0 L 531.0,479.5 L 531.5,480.0 L 531.5,481.0 L 532.0,481.5 L 532.5,482.0 L 532.5,483.0 L 533.0,483.5 L 533.5,484.0 L 533.5,485.0 L 533.5,486.0 L 534.0,486.5 L 534.5,487.0 L 535.0,487.5 L 535.5,488.0 L 535.5,489.0 L 535.5,490.0 L 536.0,490.5 L 536.5,491.0 L 536.5,492.0 L 537.0,492.5 L 537.5,493.0 L 537.5,494.0 L 538.0,494.5 L 538.5,495.0 L 538.5,496.0 L 538.5,497.0 L 539.0,497.5 L 539.5,498.0 L 539.5,499.0 L 540.0,499.5 L 540.5,500.0 L 540.5,501.0 L 541.0,501.5 L 541.5,502.0 L 541.5,503.0 L 541.5,504.0 L 542.0,504.5 L 542.5,505.0 L 542.5,506.0 L 543.0,506.5 L 543.5,507.0 L 543.5,508.0 L 544.0,508.5 L 544.5,509.0 L 544.5,510.0 L 545.0,510.5 L 545.5,511.0 L 545.5,512.0 L 545.5,513.0 L 546.0,513.5 L 546.5,514.0 L 546.5,515.0 L 547.0,515.5 L 547.5,516.0 L 547.5,517.0 L 548.0,517.5 L 548.5,518.0 L 548.5,519.0 L 549.0,519.5 L 549.5,520.0 L 549.5,521.0 L 549.5,522.0 L 550.0,522.5 L 550.5,523.0 L 550.5,524.0 L 551.0,524.5 L 551.5,525.0 L 551.5,526.0 L 552.0,526.5 L 552.5,527.0 L 552.5,528.0 L 553.0,528.5 L 553.5,529.0 L 553.5,530.0 L 554.0,530.5 L 554.5,531.0 L 554.5,532.0 L 555.0,532.5 L 555.5,533.0 L 555.5,534.0 L 555.5,535.0 L 556.0,535.5 L 556.5,536.0 L 556.5,537.0 L 556.5,538.0 L 556.5,539.0 L 556.5,540.0 L 556.0,540.5 L 555.5,541.0 L 555.0,541.5 Z" fill="#FBC00A" fill-rule="evenodd"/> <path d="M 129.0,541.5 L 128.0,541.5 L 127.0,541.5 L 126.5,541.0 L 126.0,540.5 L 125.5,540.0 L 125.0,539.5 L 124.5,539.0 L 124.5,538.0 L 124.5,537.0 L 124.5,536.0 L 125.0,535.5 L 125.5,535.0 L 125.5,534.0 L 126.0,533.5 L 126.5,533.0 L 126.5,532.0 L 126.5,531.0 L 127.0,530.5 L 127.5,530.0 L 127.5,529.0 L 128.0,528.5 L 128.5,528.0 L 128.5,527.0 L 129.0,526.5 L 129.5,526.0 L 129.5,525.0 L 129.5,524.0 L 130.0,523.5 L 130.5,523.0 L 130.5,522.0 L 131.0,521.5 L 131.5,521.0 L 131.5,520.0 L 131.5,519.0 L 132.0,518.5 L 132.5,518.0 L 132.5,517.0 L 133.0,516.5 L 133.5,516.0 L 133.5,515.0 L 134.0,514.5 L 134.5,514.0 L 134.5,513.0 L 135.0,512.5 L 135.5,512.0 L 135.5,511.0 L 135.5,510.0 L 136.0,509.5 L 136.5,509.0 L 136.5,508.0 L 137.0,507.5 L 137.5,507.0 L 137.5,506.0 L 137.5,505.0 L 138.0,504.5 L 138.5,504.0 L 138.5,503.0 L 139.0,502.5 L 139.5,502.0 L 139.5,501.0 L 140.0,500.5 L 140.5,500.0 L 140.5,499.0 L 141.0,498.5 L 141.5,498.0 L 141.5,497.0 L 141.5,496.0 L 142.0,495.5 L 142.5,495.0 L 142.5,494.0 L 142.5,493.0 L 143.0,492.5 L 143.5,492.0 L 144.0,491.5 L 144.5,492.0 L 145.0,492.5 L 145.5,493.0 L 145.5,494.0 L 145.5,495.0 L 146.0,495.5 L 146.5,496.0 L 146.5,497.0 L 147.0,497.5 L 147.5,498.0 L 147.5,499.0 L 147.5,500.0 L 147.5,501.0 L 148.0,501.5 L 148.5,502.0 L 148.5,503.0 L 149.0,503.5 L 149.5,504.0 L 149.5,505.0 L 149.5,506.0 L 149.5,507.0 L 150.0,507.5 L 150.5,508.0 L 150.5,509.0 L 150.5,510.0 L 151.0,510.5 L 151.5,511.0 L 151.5,512.0 L 151.5,513.0 L 151.5,514.0 L 152.0,514.5 L 152.5,515.0 L 152.5,516.0 L 152.5,517.0 L 153.0,517.5 L 153.5,518.0 L 153.5,519.0 L 153.5,520.0 L 153.5,521.0 L 154.0,521.5 L 154.5,522.0 L 154.5,523.0 L 154.5,524.0 L 155.0,524.5 L 155.5,525.0 L 155.5,526.0 L 155.5,527.0 L 155.5,528.0 L 155.0,528.5 L 154.5,529.0 L 154.0,529.5 L 153.5,530.0 L 153.0,530.5 L 152.5,531.0 L 152.0,531.5 L 151.0,531.5 L 150.0,531.5 L 149.5,532.0 L 149.0,532.5 L 148.0,532.5 L 147.5,533.0 L 147.0,533.5 L 146.0,533.5 L 145.0,533.5 L 144.5,534.0 L 144.0,534.5 L 143.5,535.0 L 143.0,535.5 L 142.0,535.5 L 141.0,535.5 L 140.5,536.0 L 140.0,536.5 L 139.0,536.5 L 138.5,537.0 L 138.0,537.5 L 137.0,537.5 L 136.5,538.0 L 136.0,538.5 L 135.0,538.5 L 134.5,539.0 L 134.0,539.5 L 133.0,539.5 L 132.0,539.5 L 131.5,540.0 L 131.0,540.5 L 130.0,540.5 L 129.5,541.0 L 129.0,541.5 Z" fill="#FBC00A" fill-rule="evenodd"/> <path d="M 256.0,618.5 L 255.0,618.5 L 254.0,618.5 L 253.5,618.0 L 253.0,617.5 L 252.5,617.0 L 252.0,616.5 L 251.5,616.0 L 251.5,615.0 L 251.0,614.5 L 250.5,614.0 L 250.5,613.0 L 250.5,612.0 L 250.5,611.0 L 250.5,610.0 L 250.5,609.0 L 250.5,608.0 L 250.5,607.0 L 250.0,606.5 L 249.5,606.0 L 249.5,605.0 L 249.5,604.0 L 249.5,603.0 L 249.5,602.0 L 249.5,601.0 L 249.5,600.0 L 249.5,599.0 L 249.5,598.0 L 249.5,597.0 L 249.5,596.0 L 249.5,595.0 L 249.5,594.0 L 249.5,593.0 L 249.5,592.0 L 249.5,591.0 L 249.5,590.0 L 249.5,589.0 L 249.0,588.5 L 248.5,588.0 L 248.5,587.0 L 248.5,586.0 L 248.5,585.0 L 248.5,584.0 L 248.5,583.0 L 248.5,582.0 L 248.5,581.0 L 248.5,580.0 L 248.5,579.0 L 248.5,578.0 L 248.0,577.5 L 247.5,577.0 L 247.5,576.0 L 247.5,575.0 L 247.5,574.0 L 247.5,573.0 L 247.5,572.0 L 247.5,571.0 L 247.5,570.0 L 247.5,569.0 L 247.5,568.0 L 247.5,567.0 L 247.5,566.0 L 247.5,565.0 L 247.5,564.0 L 247.5,563.0 L 247.5,562.0 L 247.0,561.5 L 246.5,561.0 L 246.5,560.0 L 246.5,559.0 L 246.5,558.0 L 246.5,557.0 L 246.5,556.0 L 246.5,555.0 L 246.5,554.0 L 246.5,553.0 L 246.5,552.0 L 246.0,551.5 L 245.5,551.0 L 245.5,550.0 L 245.5,549.0 L 245.5,548.0 L 245.5,547.0 L 245.5,546.0 L 245.5,545.0 L 245.5,544.0 L 245.5,543.0 L 245.5,542.0 L 245.5,541.0 L 245.5,540.0 L 245.5,539.0 L 245.5,538.0 L 245.5,537.0 L 245.5,536.0 L 245.0,535.5 L 244.5,535.0 L 244.5,534.0 L 244.5,533.0 L 244.5,532.0 L 244.5,531.0 L 244.5,530.0 L 244.5,529.0 L 244.5,528.0 L 244.5,527.0 L 244.5,526.0 L 244.5,525.0 L 244.5,524.0 L 244.5,523.0 L 244.5,522.0 L 244.0,521.5 L 243.5,521.0 L 244.0,520.5 L 244.5,520.0 L 245.0,519.5 L 246.0,519.5 L 246.5,520.0 L 247.0,520.5 L 248.0,520.5 L 248.5,521.0 L 249.0,521.5 L 250.0,521.5 L 250.5,522.0 L 251.0,522.5 L 252.0,522.5 L 253.0,522.5 L 253.5,523.0 L 254.0,523.5 L 255.0,523.5 L 255.5,524.0 L 256.0,524.5 L 257.0,524.5 L 257.5,525.0 L 258.0,525.5 L 259.0,525.5 L 260.0,525.5 L 260.5,526.0 L 261.0,526.5 L 262.0,526.5 L 262.5,527.0 L 263.0,527.5 L 264.0,527.5 L 265.0,527.5 L 265.5,528.0 L 266.0,528.5 L 267.0,528.5 L 267.5,529.0 L 268.0,529.5 L 269.0,529.5 L 270.0,529.5 L 271.0,529.5 L 271.5,530.0 L 272.0,530.5 L 273.0,530.5 L 273.5,531.0 L 274.0,531.5 L 275.0,531.5 L 276.0,531.5 L 277.0,531.5 L 277.5,532.0 L 278.0,532.5 L 279.0,532.5 L 279.5,533.0 L 280.0,533.5 L 281.0,533.5 L 282.0,533.5 L 283.0,533.5 L 283.5,534.0 L 284.0,534.5 L 285.0,534.5 L 286.0,534.5 L 286.5,535.0 L 287.0,535.5 L 288.0,535.5 L 289.0,535.5 L 290.0,535.5 L 291.0,535.5 L 291.5,536.0 L 292.0,536.5 L 293.0,536.5 L 294.0,536.5 L 295.0,536.5 L 295.5,537.0 L 296.0,537.5 L 297.0,537.5 L 298.0,537.5 L 299.0,537.5 L 300.0,537.5 L 300.5,538.0 L 301.0,538.5 L 302.0,538.5 L 303.0,538.5 L 304.0,538.5 L 305.0,538.5 L 305.5,539.0 L 306.0,539.5 L 307.0,539.5 L 308.0,539.5 L 309.0,539.5 L 310.0,539.5 L 311.0,539.5 L 312.0,539.5 L 312.5,540.0 L 313.0,540.5 L 314.0,540.5 L 315.0,540.5 L 316.0,540.5 L 316.5,541.0 L 317.0,541.5 L 317.5,542.0 L 317.0,542.5 L 316.5,543.0 L 316.0,543.5 L 315.5,544.0 L 315.5,545.0 L 315.0,545.5 L 314.5,546.0 L 314.0,546.5 L 313.5,547.0 L 313.0,547.5 L 312.5,548.0 L 312.5,549.0 L 312.0,549.5 L 311.5,550.0 L 311.0,550.5 L 310.5,551.0 L 310.0,551.5 L 309.5,552.0 L 309.0,552.5 L 308.5,553.0 L 308.0,553.5 L 307.5,554.0 L 307.5,555.0 L 307.0,555.5 L 306.5,556.0 L 306.0,556.5 L 305.5,557.0 L 305.0,557.5 L 304.5,558.0 L 304.5,559.0 L 304.0,559.5 L 303.5,560.0 L 303.0,560.5 L 302.5,561.0 L 302.0,561.5 L 301.5,562.0 L 301.0,562.5 L 300.5,563.0 L 300.0,563.5 L 299.5,564.0 L 299.5,565.0 L 299.0,565.5 L 298.5,566.0 L 298.0,566.5 L 297.5,567.0 L 297.0,567.5 L 296.5,568.0 L 296.5,569.0 L 296.0,569.5 L 295.5,570.0 L 295.0,570.5 L 294.5,571.0 L 294.0,571.5 L 293.5,572.0 L 293.0,572.5 L 292.5,573.0 L 292.0,573.5 L 291.5,574.0 L 291.5,575.0 L 291.0,575.5 L 290.5,576.0 L 290.0,576.5 L 289.5,577.0 L 289.0,577.5 L 288.5,578.0 L 288.0,578.5 L 287.5,579.0 L 287.5,580.0 L 287.0,580.5 L 286.5,581.0 L 286.0,581.5 L 285.5,582.0 L 285.0,582.5 L 284.5,583.0 L 284.5,584.0 L 284.0,584.5 L 283.5,585.0 L 283.0,585.5 L 282.5,586.0 L 282.0,586.5 L 281.5,587.0 L 281.0,587.5 L 280.5,588.0 L 280.5,589.0 L 280.0,589.5 L 279.5,590.0 L 279.0,590.5 L 278.5,591.0 L 278.0,591.5 L 277.5,592.0 L 277.5,593.0 L 277.0,593.5 L 276.5,594.0 L 276.0,594.5 L 275.5,595.0 L 275.0,595.5 L 274.5,596.0 L 274.0,596.5 L 273.5,597.0 L 273.0,597.5 L 272.5,598.0 L 272.5,599.0 L 272.0,599.5 L 271.5,600.0 L 271.0,600.5 L 270.5,601.0 L 270.0,601.5 L 269.5,602.0 L 269.5,603.0 L 269.0,603.5 L 268.5,604.0 L 268.0,604.5 L 267.5,605.0 L 267.0,605.5 L 266.5,606.0 L 266.0,606.5 L 265.5,607.0 L 265.5,608.0 L 265.0,608.5 L 264.5,609.0 L 264.0,609.5 L 263.5,610.0 L 263.0,610.5 L 262.5,611.0 L 262.0,611.5 L 261.5,612.0 L 261.5,613.0 L 261.0,613.5 L 260.5,614.0 L 260.0,614.5 L 259.5,615.0 L 259.0,615.5 L 258.5,616.0 L 258.0,616.5 L 257.5,617.0 L 257.0,617.5 L 256.5,618.0 L 256.0,618.5 Z" fill="#FBC00A" fill-rule="evenodd"/> <path d="M 421.0,620.5 L 420.0,620.5 L 419.0,620.5 L 418.5,620.0 L 418.0,619.5 L 417.0,619.5 L 416.5,619.0 L 416.0,618.5 L 415.5,618.0 L 415.0,617.5 L 414.5,617.0 L 414.0,616.5 L 413.5,616.0 L 413.0,615.5 L 412.5,615.0 L 412.5,614.0 L 412.0,613.5 L 411.5,613.0 L 411.0,612.5 L 410.5,612.0 L 410.0,611.5 L 409.5,611.0 L 409.0,610.5 L 408.5,610.0 L 408.0,609.5 L 407.5,609.0 L 407.5,608.0 L 407.0,607.5 L 406.5,607.0 L 406.0,606.5 L 405.5,606.0 L 405.0,605.5 L 404.5,605.0 L 404.5,604.0 L 404.0,603.5 L 403.5,603.0 L 403.0,602.5 L 402.5,602.0 L 402.0,601.5 L 401.5,601.0 L 401.0,600.5 L 400.5,600.0 L 400.5,599.0 L 400.0,598.5 L 399.5,598.0 L 399.0,597.5 L 398.5,597.0 L 398.0,596.5 L 397.5,596.0 L 397.0,595.5 L 396.5,595.0 L 396.5,594.0 L 396.0,593.5 L 395.5,593.0 L 395.0,592.5 L 394.5,592.0 L 394.0,591.5 L 393.5,591.0 L 393.0,590.5 L 392.5,590.0 L 392.5,589.0 L 392.0,588.5 L 391.5,588.0 L 391.0,587.5 L 390.5,587.0 L 390.0,586.5 L 389.5,586.0 L 389.0,585.5 L 388.5,585.0 L 388.5,584.0 L 388.0,583.5 L 387.5,583.0 L 387.0,582.5 L 386.5,582.0 L 386.0,581.5 L 385.5,581.0 L 385.0,580.5 L 384.5,580.0 L 384.0,579.5 L 383.5,579.0 L 383.5,578.0 L 383.0,577.5 L 382.5,577.0 L 382.0,576.5 L 381.5,576.0 L 381.0,575.5 L 380.5,575.0 L 380.0,574.5 L 379.5,574.0 L 379.5,573.0 L 379.0,572.5 L 378.5,572.0 L 378.0,571.5 L 377.5,571.0 L 377.0,570.5 L 376.5,570.0 L 376.0,569.5 L 375.5,569.0 L 375.5,568.0 L 375.0,567.5 L 374.5,567.0 L 374.0,566.5 L 373.5,566.0 L 373.0,565.5 L 372.5,565.0 L 372.0,564.5 L 371.5,564.0 L 371.5,563.0 L 371.0,562.5 L 370.5,562.0 L 370.0,561.5 L 369.5,561.0 L 369.0,560.5 L 368.5,560.0 L 368.0,559.5 L 367.5,559.0 L 367.5,558.0 L 367.0,557.5 L 366.5,557.0 L 366.0,556.5 L 365.5,556.0 L 365.0,555.5 L 364.5,555.0 L 364.0,554.5 L 363.5,554.0 L 363.0,553.5 L 362.5,553.0 L 362.5,552.0 L 362.0,551.5 L 361.5,551.0 L 361.0,550.5 L 360.5,550.0 L 360.0,549.5 L 359.5,549.0 L 359.0,548.5 L 358.5,548.0 L 358.5,547.0 L 358.0,546.5 L 357.5,546.0 L 357.0,545.5 L 356.5,545.0 L 356.0,544.5 L 355.5,544.0 L 356.0,543.5 L 356.5,543.0 L 357.0,542.5 L 358.0,542.5 L 358.5,542.0 L 359.0,541.5 L 360.0,541.5 L 361.0,541.5 L 362.0,541.5 L 363.0,541.5 L 364.0,541.5 L 365.0,541.5 L 366.0,541.5 L 367.0,541.5 L 368.0,541.5 L 368.5,541.0 L 369.0,540.5 L 370.0,540.5 L 371.0,540.5 L 372.0,540.5 L 373.0,540.5 L 373.5,540.0 L 374.0,539.5 L 375.0,539.5 L 376.0,539.5 L 377.0,539.5 L 378.0,539.5 L 379.0,539.5 L 380.0,539.5 L 380.5,539.0 L 381.0,538.5 L 382.0,538.5 L 383.0,538.5 L 383.5,538.0 L 384.0,537.5 L 385.0,537.5 L 386.0,537.5 L 387.0,537.5 L 388.0,537.5 L 388.5,537.0 L 389.0,536.5 L 390.0,536.5 L 391.0,536.5 L 391.5,537.0 L 392.0,537.5 L 392.5,538.0 L 392.5,539.0 L 393.0,539.5 L 393.5,540.0 L 393.5,541.0 L 393.5,542.0 L 393.5,543.0 L 394.0,543.5 L 394.5,544.0 L 394.5,545.0 L 394.5,546.0 L 395.0,546.5 L 395.5,547.0 L 395.5,548.0 L 395.5,549.0 L 396.0,549.5 L 396.5,550.0 L 396.5,551.0 L 397.0,551.5 L 397.5,552.0 L 397.5,553.0 L 398.0,553.5 L 398.5,554.0 L 399.0,554.5 L 399.5,555.0 L 400.0,555.5 L 400.5,556.0 L 401.0,556.5 L 401.5,557.0 L 402.0,557.5 L 402.5,558.0 L 403.0,558.5 L 404.0,558.5 L 404.5,559.0 L 405.0,559.5 L 406.0,559.5 L 407.0,559.5 L 408.0,559.5 L 409.0,559.5 L 410.0,559.5 L 411.0,559.5 L 412.0,559.5 L 413.0,559.5 L 414.0,559.5 L 415.0,559.5 L 415.5,559.0 L 416.0,558.5 L 417.0,558.5 L 418.0,558.5 L 419.0,558.5 L 419.5,558.0 L 420.0,557.5 L 421.0,557.5 L 422.0,557.5 L 422.5,557.0 L 423.0,556.5 L 424.0,556.5 L 424.5,556.0 L 425.0,555.5 L 426.0,555.5 L 427.0,555.5 L 427.5,555.0 L 428.0,554.5 L 429.0,554.5 L 429.5,555.0 L 430.0,555.5 L 430.5,556.0 L 430.5,557.0 L 430.5,558.0 L 430.5,559.0 L 430.5,560.0 L 430.5,561.0 L 430.5,562.0 L 430.0,562.5 L 429.5,563.0 L 429.5,564.0 L 429.5,565.0 L 429.5,566.0 L 429.5,567.0 L 429.5,568.0 L 429.5,569.0 L 429.5,570.0 L 429.5,571.0 L 429.0,571.5 L 428.5,572.0 L 428.5,573.0 L 428.5,574.0 L 428.5,575.0 L 428.5,576.0 L 428.5,577.0 L 428.5,578.0 L 428.0,578.5 L 427.5,579.0 L 427.5,580.0 L 427.5,581.0 L 427.5,582.0 L 427.5,583.0 L 427.5,584.0 L 427.5,585.0 L 427.5,586.0 L 427.5,587.0 L 427.5,588.0 L 427.0,588.5 L 426.5,589.0 L 426.5,590.0 L 426.5,591.0 L 426.5,592.0 L 426.5,593.0 L 426.5,594.0 L 426.5,595.0 L 426.5,596.0 L 426.0,596.5 L 425.5,597.0 L 425.5,598.0 L 425.5,599.0 L 425.5,600.0 L 425.5,601.0 L 425.5,602.0 L 425.5,603.0 L 425.5,604.0 L 425.5,605.0 L 425.5,606.0 L 425.0,606.5 L 424.5,607.0 L 424.5,608.0 L 424.5,609.0 L 424.5,610.0 L 424.5,611.0 L 424.5,612.0 L 424.5,613.0 L 424.0,613.5 L 423.5,614.0 L 423.5,615.0 L 423.5,616.0 L 423.5,617.0 L 423.5,618.0 L 423.0,618.5 L 422.5,619.0 L 422.0,619.5 L 421.5,620.0 L 421.0,620.5 Z" fill="#FBC00A" fill-rule="evenodd"/> <path d="M 416.0,543.5 L 408.5,540.0 L 406.5,531.0 L 403.5,523.0 L 401.5,514.0 L 399.0,505.5 L 396.5,497.0 L 394.5,488.0 L 391.5,480.0 L 389.5,471.0 L 387.0,462.5 L 384.5,454.0 L 382.0,445.5 L 379.5,437.0 L 377.5,428.0 L 374.5,420.0 L 372.0,411.5 L 369.5,403.0 L 366.0,395.5 L 358.0,398.5 L 350.5,402.0 L 343.0,405.5 L 335.0,408.5 L 327.0,411.5 L 319.5,415.0 L 311.5,418.0 L 304.0,421.5 L 296.0,424.5 L 288.0,427.5 L 280.0,430.5 L 272.0,433.5 L 264.0,436.5 L 256.0,439.5 L 247.0,441.5 L 239.0,444.5 L 230.0,446.5 L 222.0,449.5 L 213.0,451.5 L 204.0,453.5 L 201.5,462.0 L 200.5,472.0 L 199.5,482.0 L 197.5,491.0 L 196.5,501.0 L 194.5,510.0 L 191.0,517.5 L 184.5,522.0 L 176.0,524.5 L 169.5,520.0 L 167.5,511.0 L 164.5,503.0 L 162.0,494.5 L 159.5,486.0 L 157.0,477.5 L 154.5,469.0 L 151.0,461.5 L 143.5,461.0 L 133.0,461.5 L 123.0,462.5 L 114.0,460.5 L 112.5,453.0 L 118.0,447.5 L 124.5,443.0 L 132.0,439.5 L 131.5,434.0 L 126.5,428.0 L 121.5,422.0 L 116.5,416.0 L 111.5,410.0 L 106.0,404.5 L 101.0,398.5 L 96.0,392.5 L 91.0,386.5 L 86.0,380.5 L 81.0,374.5 L 81.5,367.0 L 89.0,363.5 L 98.0,361.5 L 108.0,362.5 L 115.5,366.0 L 123.0,369.5 L 130.0,373.5 L 137.5,377.0 L 145.0,380.5 L 152.0,384.5 L 159.0,388.5 L 166.5,392.0 L 174.0,395.5 L 181.0,399.5 L 188.0,403.5 L 196.0,400.5 L 203.0,396.5 L 210.5,393.0 L 218.0,389.5 L 225.0,385.5 L 232.0,381.5 L 239.5,378.0 L 246.5,374.0 L 254.0,370.5 L 261.0,366.5 L 268.5,363.0 L 275.5,359.0 L 283.0,355.5 L 290.0,351.5 L 297.0,347.5 L 304.5,344.0 L 311.5,340.0 L 309.5,335.0 L 303.0,330.5 L 297.0,325.5 L 290.0,321.5 L 284.0,316.5 L 277.5,312.0 L 271.0,307.5 L 264.5,303.0 L 258.5,298.0 L 252.0,293.5 L 245.5,289.0 L 239.0,284.5 L 233.0,279.5 L 226.5,275.0 L 220.0,270.5 L 214.0,265.5 L 207.5,261.0 L 201.0,256.5 L 194.5,252.0 L 188.0,247.5 L 181.5,243.0 L 175.5,238.0 L 169.5,233.0 L 166.5,227.0 L 171.5,221.0 L 179.0,217.5 L 187.0,214.5 L 196.0,216.5 L 204.5,219.0 L 213.0,221.5 L 221.0,224.5 L 229.0,227.5 L 237.0,230.5 L 245.0,233.5 L 253.0,236.5 L 261.0,239.5 L 269.0,242.5 L 277.0,245.5 L 285.0,248.5 L 293.0,251.5 L 300.5,255.0 L 308.5,258.0 L 316.5,261.0 L 324.5,264.0 L 332.5,267.0 L 340.5,269.0 L 346.5,264.0 L 353.0,259.5 L 360.5,256.0 L 369.0,253.5 L 378.5,255.0 L 384.5,260.0 L 386.5,269.0 L 384.0,277.5 L 378.5,283.0 L 385.0,287.5 L 393.0,290.5 L 401.0,291.5 L 408.5,288.0 L 416.0,284.5 L 423.0,280.5 L 430.0,276.5 L 437.5,273.0 L 445.0,269.5 L 452.0,265.5 L 459.5,262.0 L 467.0,258.5 L 474.0,254.5 L 482.0,251.5 L 489.0,247.5 L 496.0,243.5 L 503.5,240.0 L 511.0,236.5 L 519.0,233.5 L 526.0,229.5 L 534.0,226.5 L 542.0,223.5 L 550.5,221.0 L 559.0,218.5 L 568.0,216.5 L 578.0,215.5 L 587.0,213.5 L 597.0,214.5 L 607.0,215.5 L 616.0,217.5 L 623.0,221.5 L 629.5,226.0 L 633.0,233.5 L 632.5,243.0 L 628.5,250.0 L 624.0,256.5 L 618.5,262.0 L 613.0,267.5 L 606.5,272.0 L 600.5,277.0 L 594.0,281.5 L 587.5,286.0 L 581.0,290.5 L 574.0,294.5 L 567.0,298.5 L 560.0,302.5 L 553.0,306.5 L 546.0,310.5 L 538.5,314.0 L 531.5,318.0 L 524.0,321.5 L 517.0,325.5 L 509.5,329.0 L 502.5,333.0 L 495.0,336.5 L 488.0,340.5 L 481.0,344.5 L 474.0,348.5 L 466.5,352.0 L 459.5,356.0 L 454.5,362.0 L 453.0,371.5 L 451.5,381.0 L 451.5,390.0 L 459.0,389.5 L 467.0,386.5 L 476.0,384.5 L 483.5,388.0 L 487.5,395.0 L 487.5,404.0 L 484.0,411.5 L 478.0,416.5 L 471.5,421.0 L 464.0,424.5 L 456.5,428.0 L 449.0,431.5 L 445.5,439.0 L 444.5,449.0 L 443.5,459.0 L 442.5,469.0 L 441.5,479.0 L 440.5,489.0 L 439.5,499.0 L 438.5,509.0 L 437.5,519.0 L 435.5,528.0 L 431.0,534.5 L 424.5,539.0 L 417.0,542.5 Z" fill="#3799D8" fill-rule="evenodd"/>
  </g>
</svg>